<svg id="VUSO" xmlns="http://www.w3.org/2000/svg" width="124.191" height="20.611" viewBox="0 0 124.191 20.611">
  <path id="Path_5216" data-name="Path 5216" d="M16.861.452H16.63a1.966,1.966,0,0,0-2.186,1.381c-.058.115-4.776,11.191-5.15,11.967a1.871,1.871,0,0,0-.173.4c-.086-.2-.172-.374-.2-.46-.288-.6-3.452-8.055-5.092-11.94A2.011,2.011,0,0,0,1.671.453h-.23A1.419,1.419,0,0,0,.2,1.028a1.6,1.6,0,0,0-.029,1.5c.258.518,7.912,17.117,8,17.261.316.69.777.777.978.777a1.056,1.056,0,0,0,.95-.747c.086-.173,7.71-16.657,8.084-17.434a1.26,1.26,0,0,0-.029-1.238,1.592,1.592,0,0,0-1.294-.69Zm18.009,0h-.087a1.7,1.7,0,0,0-1.7,1.7v9.983c0,3.769-2.56,5.092-4.747,5.092s-4.747-1.323-4.747-5.063V2.178a1.7,1.7,0,0,0-1.7-1.7H21.78a1.7,1.7,0,0,0-1.7,1.7V12.3c0,6.1,4.286,8.286,8.285,8.286,1.928,0,8.228-.6,8.228-8.285V2.178A1.77,1.77,0,0,0,34.87.452ZM46.234,7.069c-.259-.115-.46-.2-.575-.259-.576-.288-1.352-.777-1.352-1.582a2.082,2.082,0,0,1,2.071-1.9,1.924,1.924,0,0,1,1.582.489l.115.087a3.077,3.077,0,0,0,.316.258c.6.518,1.7,1.5,2.877.662a1.61,1.61,0,0,0,.546-2.215C51.067,1.372,48.939.423,47.327.078a6.858,6.858,0,0,0-4.776.95,5.08,5.08,0,0,0-2.244,4.2,4.938,4.938,0,0,0,2.33,4.2,9.838,9.838,0,0,0,2.446,1.093,12.994,12.994,0,0,1,2.33.978c1.928,1.15,2.532,1.841,2.417,2.963a3.328,3.328,0,0,1-3.107,2.762,4.348,4.348,0,0,1-3.683-1.784,1,1,0,0,1-.172-.259A2.313,2.313,0,0,0,39.876,14a1.734,1.734,0,0,0-.834,2.445,8.424,8.424,0,0,0,7.681,4.114,7.054,7.054,0,0,0,5.811-2.646,6.194,6.194,0,0,0,.72-6.128C52.247,9.658,48.19,7.9,46.234,7.069Zm19.3-7.077a10.3,10.3,0,1,0,10.328,10.3A10.326,10.326,0,0,0,65.537-.008Zm0,17.261a6.964,6.964,0,0,1,0-13.924,6.877,6.877,0,0,1,6.79,6.962A6.859,6.859,0,0,1,65.537,17.253Z" transform="translate(-0.006 0.021)" fill="#fff"/>
  <path id="Path_5217" data-name="Path 5217" d="M117.023,16.917c-5.466-3.308-9.839-.288-9.148,1.352,4.546-2.36,5.725,2.387,11.076,2.56,4.8-.173,6.5-2.935,6.358-5.351C125.223,13.579,122.979,20.542,117.023,16.917Z" transform="translate(-42.401 -5.943)" fill="#fff"/>
  <path id="Path_5218" data-name="Path 5218" d="M143.292,11.042a2.059,2.059,0,0,1-.661-1.582,1.957,1.957,0,0,1,.661-1.554,2.267,2.267,0,0,1,1.582-.6,2.674,2.674,0,0,1,1.209.259v.978a2.39,2.39,0,0,0-1.036-.259,1.426,1.426,0,0,0-.92.317,1.085,1.085,0,0,0-.374.834,1,1,0,0,0,.374.834,1.425,1.425,0,0,0,.92.317,2.037,2.037,0,0,0,1.122-.288v.978a2.694,2.694,0,0,1-1.295.316,2.03,2.03,0,0,1-1.582-.546Zm4.718.49V8.4h-1.295V7.417h3.769V8.4H149.19v3.136h-1.179Zm7.077-3.6a2.185,2.185,0,0,1,.546,1.553,2.283,2.283,0,0,1-.546,1.554,1.841,1.841,0,0,1-1.381.633,1.632,1.632,0,0,1-1.352-.6v2.157H151.2V7.417h1.151v.518a1.6,1.6,0,0,1,1.352-.6A1.635,1.635,0,0,1,155.088,7.935Zm-2.762,1.007v1.064a1.2,1.2,0,0,0,1.036.6,1.132,1.132,0,0,0,.805-.316,1.182,1.182,0,0,0,.317-.806,1.252,1.252,0,0,0-.317-.834,1.02,1.02,0,0,0-.805-.317A1.2,1.2,0,0,0,152.326,8.942Zm8.343,1.64v.863a.976.976,0,0,1-.633.173.9.9,0,0,1-.92-.518,1.908,1.908,0,0,1-1.41.576,1.387,1.387,0,0,1-1.525-1.381,1.124,1.124,0,0,1,.489-1.007,1.889,1.889,0,0,1,1.151-.345A2.46,2.46,0,0,1,159,9.2V9.086c0-.518-.374-.777-1.093-.777a2.366,2.366,0,0,0-1.237.345V7.676A3.141,3.141,0,0,1,158.2,7.36a2.17,2.17,0,0,1,1.409.431,1.408,1.408,0,0,1,.547,1.179v1.41c0,.2.086.316.288.316a1.753,1.753,0,0,1,.23-.115Zm-1.7-.661a1.6,1.6,0,0,0-.863-.231c-.489,0-.805.2-.805.546,0,.374.316.547.747.547a1.059,1.059,0,0,0,.921-.432Zm3.51-2.5.834,1.151.834-1.151h1.295l-1.439,1.957,1.582,2.157h-1.323l-.95-1.323-.978,1.323h-1.295l1.582-2.157-1.439-1.985h1.295v.029Zm4.027.518a2.441,2.441,0,0,1,3.28,0,2.044,2.044,0,0,1,.633,1.525,2.061,2.061,0,0,1-.633,1.554,2.331,2.331,0,0,1-1.64.633,2.211,2.211,0,0,1-1.64-.633,2.061,2.061,0,0,1-.633-1.553,2,2,0,0,1,.633-1.525Zm1.64,2.7a1.129,1.129,0,0,0,.805-.317,1.2,1.2,0,0,0,.317-.834,1.13,1.13,0,0,0-.317-.806,1.019,1.019,0,0,0-.805-.316,1.082,1.082,0,0,0-1.122,1.122,1.253,1.253,0,0,0,.316.834A1.13,1.13,0,0,0,168.149,10.64Zm3.165.892V7.418h2.33c.863,0,1.323.46,1.323,1.064a.892.892,0,0,1-.518.863,1.047,1.047,0,0,1,.777,1.065c0,.69-.546,1.122-1.5,1.122Zm1.15-2.474h.806c.374,0,.547-.144.547-.431s-.172-.432-.547-.432h-.806Zm0,1.668h.979c.4,0,.6-.144.6-.46s-.2-.461-.6-.461h-.979Zm7.825-.144v.863a.976.976,0,0,1-.633.173.9.9,0,0,1-.92-.518,1.908,1.908,0,0,1-1.41.576,1.386,1.386,0,0,1-1.525-1.381,1.124,1.124,0,0,1,.489-1.007,1.889,1.889,0,0,1,1.151-.345,2.46,2.46,0,0,1,1.179.259V9.086c0-.518-.374-.777-1.093-.777a2.366,2.366,0,0,0-1.237.345V7.676a3.14,3.14,0,0,1,1.525-.317,2.171,2.171,0,0,1,1.41.431,1.408,1.408,0,0,1,.547,1.179v1.41c0,.2.086.316.288.316l.23-.115Zm-1.668-.661a1.6,1.6,0,0,0-.863-.231c-.49,0-.806.2-.806.546,0,.374.317.547.748.547a1.058,1.058,0,0,0,.92-.432Zm-35.7,9.465V15.271h1.151v1.5l1.409-1.5h1.439l-1.784,1.87,2.071,2.273h-1.5L144.07,17.63v1.784h-1.151Zm5.006-3.6a2.442,2.442,0,0,1,3.279,0,2.188,2.188,0,0,1,0,3.078,2.329,2.329,0,0,1-1.639.633,2.21,2.21,0,0,1-1.64-.633,2.058,2.058,0,0,1-.633-1.553,1.9,1.9,0,0,1,.633-1.525Zm1.64,2.676a1.132,1.132,0,0,0,.805-.316,1.2,1.2,0,0,0,.317-.834,1.13,1.13,0,0,0-.317-.806,1.02,1.02,0,0,0-.805-.316,1.083,1.083,0,0,0-1.122,1.122,1.253,1.253,0,0,0,.317.834,1.021,1.021,0,0,0,.806.317Zm3.136.921V15.271h1.15l1.209,1.525,1.208-1.525h1.151v4.114h-1.093V16.854l-1.036,1.266h-.46l-1.007-1.266v2.532H152.7Zm5.84,0V15.271h4v4.114h-1.151V16.25h-1.64v3.136H158.54Zm9.292-.95V19.3a.976.976,0,0,1-.633.172.9.9,0,0,1-.92-.518,1.909,1.909,0,0,1-1.41.576,1.386,1.386,0,0,1-1.525-1.381,1.123,1.123,0,0,1,.489-1.007,1.882,1.882,0,0,1,1.151-.345,2.47,2.47,0,0,1,1.179.259V16.94c0-.518-.374-.777-1.093-.777a2.361,2.361,0,0,0-1.237.346V15.53a3.137,3.137,0,0,1,1.525-.317,2.168,2.168,0,0,1,1.41.432,1.408,1.408,0,0,1,.547,1.179v1.409c0,.2.086.317.288.317A1.645,1.645,0,0,1,167.832,18.436Zm-1.7-.69a1.6,1.6,0,0,0-.863-.231c-.489,0-.806.2-.806.547,0,.374.317.546.748.546a1.059,1.059,0,0,0,.92-.431Zm2.5,1.64V15.271h1.151V16.8h1.7V15.271h1.151v4.114h-1.151V17.774h-1.7v1.611Zm5.811-5.926a.69.69,0,1,1-.69.69A.681.681,0,0,1,174.449,13.459Zm-.575,5.926V15.271h1.15v4.114h-1.15Zm1.985,0,1.093-1.582a1.163,1.163,0,0,1-.805-1.209c0-.777.547-1.323,1.611-1.323h2.215v4.114h-1.151V18.034h-.69l-.949,1.352h-1.324Zm2.963-2.215V16.163h-.863c-.374,0-.633.172-.633.518,0,.316.23.518.633.518h.863Z" transform="translate(-56.098 -2.859)" fill="#fff"/>
</svg>
