<svg xmlns="http://www.w3.org/2000/svg" xmlns:xlink="http://www.w3.org/1999/xlink" width="75.742" height="29.813" viewBox="0 0 75.742 29.813">
  <defs>
    <clipPath id="clip-path">
      <path id="Path_31147" data-name="Path 31147" d="M0,0H75.742V29.814H0Z" fill="#fff"/>
    </clipPath>
  </defs>
  <g id="EKTA" clip-path="url(#clip-path)">
    <path id="Path_31146" data-name="Path 31146" d="M0,7.81a.887.887,0,0,1,.991-.985H11.6a.872.872,0,0,1,.99.985v.825a.9.9,0,0,1-.99,1.018H3.005V16.71H9.779a.874.874,0,0,1,.991.985v.821a.9.9,0,0,1-.991,1.018H3.005v7.455H11.6a.9.9,0,0,1,.99,1.018v.821a.873.873,0,0,1-.99.985H.99A.887.887,0,0,1,0,28.828Zm18.767-.985h.991a.9.9,0,0,1,1.025.985V17.991L28.51,7.515a1.4,1.4,0,0,1,1.288-.69h1.422a.719.719,0,0,1,.5,1.182l-6.542,8.407,6.708,12.249a.742.742,0,0,1-.629,1.149h-1.29a1.242,1.242,0,0,1-1.321-.788L23.256,18.91l-2.477,3.219v6.7a.9.9,0,0,1-1.025.985h-.991a.887.887,0,0,1-.991-.985V7.81a.887.887,0,0,1,.991-.985ZM39.94,9.649H35.645a.9.9,0,0,1-.992-1.018V7.811a.874.874,0,0,1,.992-.985h11.63a.873.873,0,0,1,.991.985v.825a.9.9,0,0,1-.991,1.018H42.946V28.828a.873.873,0,0,1-.992.985h-.99a.9.9,0,0,1-1.024-.985V9.649Zm12.223,3.876c0-4.7,2.974-7.061,6.939-7.061s6.938,2.365,6.938,7.061v15.3a.873.873,0,0,1-.991.985h-.992a.873.873,0,0,1-.991-.985V22.063h-7.93v6.765a.873.873,0,0,1-.991.985h-.99a.874.874,0,0,1-.992-.985Zm2.974,5.714h7.93V13.821c0-3.382-1.784-4.532-3.965-4.532s-3.965,1.149-3.965,4.532ZM71.54,0A4.19,4.19,0,1,0,74.5,1.217,4.17,4.17,0,0,0,71.54,0Zm0,6.655a2.486,2.486,0,1,1,.952-.186,2.476,2.476,0,0,1-.952.186Z" transform="translate(0.001 0)" fill="#fff"/>
  </g>
</svg>
