<svg xmlns="http://www.w3.org/2000/svg" width="81.551" height="56.107" viewBox="0 0 81.551 56.107">
  <g id="MFA_UA_EN" transform="translate(0)">
    <path id="Path_5331" data-name="Path 5331" d="M24.123,25.4H18.215A24.29,24.29,0,0,1,25.329,8.222L29.506,12.4a18.382,18.382,0,0,0-5.383,13Z" transform="translate(-18.214 -8.222)" fill="#0054ac"/>
    <path id="Path_5332" data-name="Path 5332" d="M24.123,64.286H18.215a24.29,24.29,0,0,0,7.114,17.176l4.177-4.177a18.381,18.381,0,0,1-5.383-13Z" transform="translate(-18.214 -47.11)" fill="#ffc800"/>
    <path id="Path_5333" data-name="Path 5333" d="M83.438,29.117a3.376,3.376,0,0,0-.847,2.236c.034,1.886.26,3.766.282,5.646a12.824,12.824,0,0,1-1.123,5.013c-.215.446-.446.881-.678,1.315l-.677-.136a1.129,1.129,0,0,1,.215-2.236l.248.028L80.3,36.378a7.084,7.084,0,0,0-3.642-5.567V47.167H80.44a6.2,6.2,0,0,0,2.309,3.783,2.255,2.255,0,0,1,.689.751,2.307,2.307,0,0,1,.689-.751,6.2,6.2,0,0,0,2.309-3.783h3.777V30.811a7.085,7.085,0,0,0-3.641,5.567l-.553,4.607.248-.028a1.129,1.129,0,0,1,.214,2.236l-.677.136c-.232-.435-.463-.869-.678-1.315A12.633,12.633,0,0,1,84,37c.023-1.886.248-3.766.282-5.646a3.377,3.377,0,0,0-.847-2.236Zm-5.646,4.048a5.921,5.921,0,0,1,1.366,3.1l.452,3.8a2.268,2.268,0,0,0-1.18,1.457h-.638V33.165Zm11.292,0v8.356h-.638a2.268,2.268,0,0,0-1.18-1.457l.452-3.8a5.919,5.919,0,0,1,1.366-3.1ZM83.438,40.8a12.936,12.936,0,0,0,1.242,2.812,2.54,2.54,0,0,0-1.242.836,2.528,2.528,0,0,0-1.242-.836A12.946,12.946,0,0,0,83.438,40.8ZM77.792,42.65h.638a2.274,2.274,0,0,0,1.581,1.609l.542.124a6.128,6.128,0,0,0-.226,1.654H77.787V42.65Zm10.654,0h.638v3.388H86.543a6.16,6.16,0,0,0-.226-1.654l.542-.124A2.254,2.254,0,0,0,88.44,42.65ZM81.66,44.643a1.412,1.412,0,0,1,1.214,1.395H81.462A5.169,5.169,0,0,1,81.66,44.643Zm3.557,0a5.13,5.13,0,0,1,.2,1.395H84A1.412,1.412,0,0,1,85.216,44.643Zm-3.625,2.524h1.282v2.377A5.119,5.119,0,0,1,81.592,47.167Zm2.411,0h1.282A5.09,5.09,0,0,1,84,49.544Z" transform="translate(-58.756 -22.716)" fill="#0054ac"/>
    <path id="Path_5334" data-name="Path 5334" d="M151.918,117.744c-.7,0-.994.427-.994,1.352v.6l-.4.023v.439h.4v2.773l-.4.012.035.451h1.294l.023-.416-.4-.012v-2.808h1.156V119.7h-1.156v-.543c0-.74.15-.959.578-.959a.566.566,0,0,1,.451.231l.035.427h.381v-1.04H152.6l-.058.185A.978.978,0,0,0,151.918,117.744Zm-26.471.543a.4.4,0,0,0-.231.081.357.357,0,0,0-.093.266.306.306,0,0,0,.093.243.344.344,0,0,0,.243.081.39.39,0,0,0,.231-.07.348.348,0,0,0,.093-.254.358.358,0,0,0-.093-.266A.435.435,0,0,0,125.448,118.287Zm5.927,0a.408.408,0,0,0-.243.081.358.358,0,0,0-.092.266.306.306,0,0,0,.092.243.364.364,0,0,0,.243.081.427.427,0,0,0,.243-.07.4.4,0,0,0,.093-.254.412.412,0,0,0-.093-.266A.467.467,0,0,0,131.375,118.287Zm-13.3.3-.023.416.543.011v3.906l-.543.023.023.451h1.514l.023-.37-.5-.023v-3.57h.012l1.745,3.963h.543l1.744-3.963v3.559l-.485.012.023.393h1.525l.023-.451-.532-.012-.012-3.882.532-.023v-.439h-1.259l-1.814,4.171-1.837-4.171Zm18.105,0-.058,1.109-.416.023v.439h.416V122.4c0,.763.266,1.051.82,1.051a2.017,2.017,0,0,0,.682-.115v-.393a3.625,3.625,0,0,1-.52.058c-.324,0-.451-.231-.451-.74v-2.1h1.028V119.7h-1.028v-1.109Zm-7.5,1.005a1.4,1.4,0,0,0-1.144.427l-.058-.324h-.855l-.023.439.4.023v2.762l-.4.023.023.451h1.294l.035-.416-.4-.023v-2.484a1.266,1.266,0,0,1,.959-.381c.532,0,.843.219.843.763v2.542h.924l.012-.416-.393-.023v-2.218C129.9,119.928,129.434,119.593,128.683,119.593Zm5.153,0a1.044,1.044,0,0,0-1.167,1.005c0,1.329,2,.878,2,1.791,0,.346-.266.682-.913.682a2.551,2.551,0,0,1-.774-.127l-.035-.612-.346.035.046.936a2.771,2.771,0,0,0,1.121.2c1.04,0,1.444-.543,1.444-1.167,0-1.271-2-.89-2-1.791,0-.324.289-.531.7-.531a1.065,1.065,0,0,1,.717.3l.035.37h.37v-1.017h-.277l-.081.243A1.383,1.383,0,0,0,133.836,119.593Zm6.159,0a1.175,1.175,0,0,0-.959.67l-.058-.566h-.82l-.035.439.439.023v2.762l-.4.023.023.451h1.352l.023-.416-.462-.023v-2.311a.953.953,0,0,1,.8-.578,1.906,1.906,0,0,1,.277.023l.035.693h.393V119.7A1.827,1.827,0,0,0,139.994,119.593Zm8.261,0c-1.1,0-1.675.716-1.675,1.918s.578,1.987,1.675,1.987,1.675-.786,1.675-1.987S149.365,119.593,148.256,119.593Zm-23.444.1-.023.439.393.023v2.762l-.4.023.035.451h1.294l.023-.416-.4-.023V119.7Zm5.916,0-.023.439.4.023v2.762l-.4.023.023.451h1.294l.035-.416-.4-.023V119.7Zm10.064,0-.035.439.485.023,1.259,3.235c-.289.82-.612,1.479-.982,1.479a1.434,1.434,0,0,1-.462-.092l-.058.4s.1.162.589.162c.577,0,1.04-.809,1.421-1.872l1.178-3.316.451-.023V119.7h-1.305v.428l.358.011-.9,2.6L141.67,119.7Zm7.464.335c.774,0,1.121.555,1.121,1.49s-.346,1.537-1.121,1.537-1.109-.6-1.109-1.537S147.493,120.032,148.256,120.032Z" transform="translate(-87.466 -84.191)" fill="#0054ac"/>
    <path id="Path_5335" data-name="Path 5335" d="M123.3,172.618c-.7,0-.994.427-.994,1.352v.589l-.4.023v.451h.4v2.773l-.4.012.035.439h1.294l.023-.4-.4-.023v-2.8H124v-.474h-1.156v-.532c0-.74.162-.959.578-.959a.6.6,0,0,1,.451.219l.035.428h.381v-1.028h-.312l-.058.173A.948.948,0,0,0,123.3,172.618Zm7.811.092-.023.451.393.023v4.61l-.4.023.035.439h1.248l.023-.381-.358-.023v-1.2l.358-.2,1.051,1.5.278.3h.832l.023-.474h-.624l-1.109-1.618.89-1.086.624-.069v-.451h-1.306l-.023.4.231.011-.774.994-.451.243v-3.5Zm10.711.451a.333.333,0,0,0-.231.081.347.347,0,0,0-.093.254.315.315,0,0,0,.093.254.344.344,0,0,0,.243.081.39.39,0,0,0,.231-.07.411.411,0,0,0,.093-.266.4.4,0,0,0-.093-.254A.363.363,0,0,0,141.819,173.161Zm-15.795.289-.023.416.543.023v2.727a1.8,1.8,0,0,0,3.6,0v-2.727l.52-.023v-.416h-1.595l-.023.439.555.012v2.588a1.251,1.251,0,1,1-2.5,0v-2.6l.532-.023v-.416Zm-6.39,1.017c-1.1,0-1.664.716-1.664,1.918s.566,1.976,1.664,1.976,1.675-.774,1.675-1.976S120.744,174.467,119.635,174.467Zm17,0a1.175,1.175,0,0,0-.959.67h-.012l-.046-.577h-.832l-.023.451.427.023v2.762l-.4.023.023.439h1.352l.035-.4-.462-.023v-2.323a.944.944,0,0,1,.786-.566c.115,0,.2.012.277.012l.035.7h.393v-1.1A1.9,1.9,0,0,0,136.631,174.467Zm2.554,0a1.486,1.486,0,0,0-.913.335l-.046-.277h-.347l-.011,1.167h.4l.035-.485a1.052,1.052,0,0,1,.74-.312c.555,0,.763.278.763.925v.254c-.855.093-2.253.15-2.253,1.236,0,.658.428,1.051,1.19,1.051a1.1,1.1,0,0,0,1.074-.578l.081.474h.82l.035-.4-.4-.023v-2.022C140.351,174.871,139.947,174.467,139.185,174.467Zm5.87,0a1.459,1.459,0,0,0-1.155.427l-.046-.335H143l-.023.451.4.023v2.762l-.4.023.023.439h1.294l.035-.4-.4-.023v-2.484a1.267,1.267,0,0,1,.959-.381c.532,0,.843.219.843.751v2.542h.925l.011-.4-.393-.023v-2.218C146.267,174.79,145.805,174.467,145.054,174.467Zm3.64,0c-.971,0-1.618.693-1.618,1.941,0,1.271.67,1.953,1.71,1.953a1.484,1.484,0,0,0,1.282-.636l-.254-.3a1.275,1.275,0,0,1-1.017.485c-.693,0-1.132-.451-1.178-1.387h2.4a1.332,1.332,0,0,0,.081-.462C150.1,174.986,149.6,174.467,148.694,174.467Zm-7.51.093-.023.451.393.023v2.762l-.4.023.035.439h1.294l.023-.4-.4-.023v-3.27Zm-21.549.335c.786,0,1.121.555,1.121,1.5s-.335,1.537-1.121,1.537c-.763,0-1.109-.6-1.109-1.537S118.872,174.894,119.635,174.894Zm29.071,0c.6,0,.9.358.9,1.051v.173h-1.976C147.689,175.345,148.035,174.894,148.705,174.894Zm-8.9,1.572v.936a.94.94,0,0,1-.9.555c-.532,0-.8-.243-.8-.7C138.11,176.581,138.988,176.535,139.809,176.466Z" transform="translate(-87.409 -122.253)" fill="#0054ac"/>
    <path id="Path_5336" data-name="Path 5336" d="M155.007,145.049a1.283,1.283,0,0,0-1.445,1.456v.532l-.393.046v.774h.393v2.057l-.393.046.058.774h1.756v-.716l-.381-.035v-2.126H156v2.068l-.393.046.046.763h1.721l.046-.716-.393-.035v-2.126h1.063v-.82h-1.063v-.485a1.164,1.164,0,0,1,.092-.555.337.337,0,0,1,.324-.162.44.44,0,0,1,.324.162l.046.37h.716l.012-1.236h-.578l-.092.162a1.162,1.162,0,0,0-.659-.243,1.141,1.141,0,0,0-.89.335A5.251,5.251,0,0,0,155.007,145.049Zm-18.649.289a.588.588,0,0,0-.428.994.6.6,0,0,0,.439.162.57.57,0,0,0,.428-.15.614.614,0,0,0,.162-.428.6.6,0,0,0-.15-.416A.612.612,0,0,0,136.359,145.338Zm26.76,0a.588.588,0,0,0-.439.994.641.641,0,0,0,.439.162.552.552,0,0,0,.427-.15.574.574,0,0,0,.173-.428.556.556,0,0,0-.6-.577Zm-7.88.5a3.783,3.783,0,0,1,.786.2c-.011.116-.023.254-.023.4v.6h-1.4v-.416a1.106,1.106,0,0,1,.127-.6A.614.614,0,0,1,155.239,145.835Zm-31.116.035-.924.058h-2.842l-.046.716.531.046v3.224l-.531.046.046.774h2.207l.035-.728-.67-.023v-1.167h1.837V148l-1.837.012V146.77h1.329l.035.462h.832Zm25.535.058-1.387,4-.5.035.046.774H149.6l.046-.67-.439-.035.22-.612h1.687l.254.659-.393.046v.612h1.918l.035-.728-.474-.023-1.387-4.056Zm.624.878h.012l.6,1.906h-1.236Zm-19.6.092a1.076,1.076,0,0,0-.335.058,1.051,1.051,0,0,0-.254.15,1.2,1.2,0,0,0-.173.173c-.058.069-.081.115-.1.138a.242.242,0,0,1-.035.058h-.023l-.1-.439h-1.178l-.046.763.427.046v2.068l-.393.046.046.774h1.826l.046-.728-.5-.023v-1.826a.445.445,0,0,1,.069-.127.552.552,0,0,1,.185-.185.611.611,0,0,1,.347-.1h.1l.058.636h.728v-1.34L131.3,147a1.227,1.227,0,0,0-.254-.07A1.8,1.8,0,0,0,130.686,146.9Zm35.934,0a1.148,1.148,0,0,0-.346.058,1.059,1.059,0,0,0-.254.15,1.216,1.216,0,0,0-.173.173c-.046.069-.081.115-.093.138a.1.1,0,0,0-.035.058h-.023l-.1-.439H164.4l-.046.763.428.046v2.068l-.393.046.058.774h1.826l.035-.728-.485-.023v-1.826a.424.424,0,0,1,.058-.127.61.61,0,0,1,.2-.185.549.549,0,0,1,.335-.1h.1l.058.636h.739l-.011-1.34-.07-.035a1.477,1.477,0,0,0-.254-.07A1.806,1.806,0,0,0,166.619,146.9Zm-40.428,0a1.831,1.831,0,0,0-1.4.52,1.974,1.974,0,0,0-.485,1.433,2.132,2.132,0,0,0,.485,1.479,2.056,2.056,0,0,0,2.785,0,2.127,2.127,0,0,0,.508-1.479,1.931,1.931,0,0,0-.5-1.433A1.814,1.814,0,0,0,126.191,146.9Zm7.3,0a1.724,1.724,0,0,0-1.306.52,1.969,1.969,0,0,0-.5,1.456,2.062,2.062,0,0,0,.509,1.491,1.962,1.962,0,0,0,1.421.508,1.885,1.885,0,0,0,.52-.069,1.739,1.739,0,0,0,.4-.162,2.4,2.4,0,0,0,.277-.2l.162-.162a.7.7,0,0,0,.046-.081l-.474-.532-.092.1a1.12,1.12,0,0,1-.324.208,1.082,1.082,0,0,1-.462.1.884.884,0,0,1-.936-.89h2.207l.035-.081a1.078,1.078,0,0,0,.069-.243,1.575,1.575,0,0,0,.035-.335,1.678,1.678,0,0,0-.416-1.213A1.561,1.561,0,0,0,133.493,146.9Zm5.893,0a2.009,2.009,0,0,0-1.19.347,1.165,1.165,0,0,0-.485,1.017,1.233,1.233,0,0,0,.6,1.121.7.7,0,0,0-.289.555,1.033,1.033,0,0,0,.127.532.9.9,0,0,0-.578.89,1.238,1.238,0,0,0,.427.982,2.115,2.115,0,0,0,1.387.381,2.016,2.016,0,0,0,1.375-.393,1.3,1.3,0,0,0,.451-1.028.95.95,0,0,0-.393-.843,2.123,2.123,0,0,0-1.144-.289,2.343,2.343,0,0,1-.555-.046.4.4,0,0,1-.231-.092.191.191,0,0,1-.058-.139.121.121,0,0,1,.058-.1.277.277,0,0,1,.127-.07.6.6,0,0,1,.15-.023,1.013,1.013,0,0,1,.127-.023h.058a1.694,1.694,0,0,0,1.132-.37,1.286,1.286,0,0,0,.439-1.04,1.573,1.573,0,0,0-.058-.416l.324-.023-.058-.786-.832.069A1.867,1.867,0,0,0,139.386,146.9Zm4.576,0a2.563,2.563,0,0,0-.428.046,1.383,1.383,0,0,0-.324.093.829.829,0,0,0-.219.127.886.886,0,0,0-.127.092l-.035.035h-.012l-.081-.254h-1.225l-.035.763.358.046v2.068l-.393.046.046.774h1.721l.046-.728-.381-.023v-1.929l.069-.07a1.954,1.954,0,0,1,.266-.127,1.132,1.132,0,0,1,.393-.069.727.727,0,0,1,.474.127.558.558,0,0,1,.138.427v2.392h1.375l.046-.728-.393-.023v-1.837A1.118,1.118,0,0,0,143.962,146.9Zm16.234,0a1.588,1.588,0,0,0-.9.3l-.081-.22H158.6l-.046,1.306h.763l.058-.439a.785.785,0,0,1,.555-.185.49.49,0,0,1,.427.162.815.815,0,0,1,.127.543v.069c-.15.023-.254.035-.324.046a1.684,1.684,0,0,0-.335.046,1.789,1.789,0,0,0-.346.058c-.069.012-.185.046-.312.081a1.351,1.351,0,0,0-.312.127,1.771,1.771,0,0,0-.243.162.6.6,0,0,0-.208.208,1.132,1.132,0,0,0-.127.266.9.9,0,0,0-.058.324,1.039,1.039,0,0,0,.347.82,1.4,1.4,0,0,0,.936.3,1.562,1.562,0,0,0,.416-.058,1.087,1.087,0,0,0,.3-.115,1.267,1.267,0,0,0,.2-.15c.058-.058.093-.1.1-.116.012-.035.023-.046.023-.058l.139.358h1.179l.046-.728-.381-.023v-1.641a1.432,1.432,0,0,0-.358-1.086A1.318,1.318,0,0,0,160.2,146.9Zm8.816,0a1.468,1.468,0,0,0-.947.324,1.069,1.069,0,0,0-.37.843,1.028,1.028,0,0,0,.138.543.881.881,0,0,0,.335.346c.139.07.277.139.439.208a3.955,3.955,0,0,0,.439.15.83.83,0,0,1,.335.162.285.285,0,0,1,.139.243q0,.416-.624.416a2.166,2.166,0,0,1-.532-.069l-.069-.532-.635.046.092,1.109.139.046c.093.023.231.058.427.093a3.431,3.431,0,0,0,.6.046,1.886,1.886,0,0,0,1.259-.346,1.189,1.189,0,0,0,.4-.948.864.864,0,0,0-.2-.566,1.231,1.231,0,0,0-.474-.37c-.173-.081-.358-.15-.543-.22a2.137,2.137,0,0,1-.462-.208c-.127-.081-.2-.162-.2-.266a.253.253,0,0,1,.127-.231.584.584,0,0,1,.324-.081.858.858,0,0,1,.555.2l.058.335h.67l.012-1.19h-.509l-.115.2A1.43,1.43,0,0,0,169.011,146.9Zm-33.484.139-.046.763.37.046v2.068l-.393.046.046.774h1.721l.046-.728-.393-.023v-2.946Zm26.748,0-.035.763.358.046v2.068l-.393.046.058.774h1.722l.035-.728-.381-.023v-2.946Zm-22.935.6a.526.526,0,0,1,.578.6.858.858,0,0,1-.162.555.574.574,0,0,1-.439.185.618.618,0,0,1-.451-.185.788.788,0,0,1-.162-.532A.555.555,0,0,1,139.34,147.637Zm-13.149.023a.656.656,0,0,1,.624.3,1.575,1.575,0,0,1,.208.9c0,.832-.278,1.259-.832,1.259s-.82-.427-.82-1.259C125.37,148.053,125.648,147.66,126.191,147.66Zm7.3,0c.439,0,.647.22.647.67v.162h-1.41a1.162,1.162,0,0,1,.231-.624A.68.68,0,0,1,133.493,147.66Zm26.991,1.444v.635a.475.475,0,0,1-.069.127.64.64,0,0,1-.22.173.658.658,0,0,1-.37.1c-.358,0-.531-.173-.531-.5a.44.44,0,0,1,.069-.254.489.489,0,0,1,.266-.15,1.259,1.259,0,0,1,.347-.081C160.091,149.139,160.265,149.128,160.484,149.1Zm-21.595,1.837c.1.012.231.035.37.046a3.355,3.355,0,0,1,.381.023,2.632,2.632,0,0,1,.3.035.5.5,0,0,1,.22.127.366.366,0,0,1,.069.231c0,.358-.277.543-.843.543a1.136,1.136,0,0,1-.647-.162.53.53,0,0,1-.208-.427A.416.416,0,0,1,138.889,150.942Z" transform="translate(-89.031 -103.13)" fill="#0054ac"/>
  </g>
</svg>
