<svg xmlns="http://www.w3.org/2000/svg" width="75" height="25" viewBox="0 0 75 25"><g><g><path fill="#005cff" d="M6.367 1.172c3.186 0 5.77 2.55 5.768 5.699v.088c-.037 2.944-1.942 5.838-5.76 8.686l-.01.007-.01-.008-.115-.086C2.463 12.712.596 9.815.596 6.871c0-3.147 2.584-5.7 5.77-5.7zm0-.35C2.968.822.214 3.54.214 6.893c0 3.103 1.967 6.106 5.86 9.006l.292.217.291-.217.116-.087c3.816-2.874 5.744-5.847 5.744-8.919 0-3.354-2.754-6.07-6.152-6.07z"/></g><g><path fill="#005cff" d="M53.032 7.839h-1.91V13.9c2.835-.007 4.42-1.443 4.42-3.444.002-1.625-.826-2.618-2.51-2.618zm-14.048 0h-.058l-2.082 6.922c.533-.273 1.157-.336 1.784-.4.77-.082 1.558-.167 2.13-.456L38.984 7.84zm-13.487 0h-2.755c-.45 3.224-1.277 6.76-2.244 10.066h4.999zM53.604 5.04c3.26.052 4.979 2.465 4.979 5.021 0 3.44-2.717 6.363-7.461 6.37v4.062H48.08V6.318c-.033-.41-.128-1.009-.223-1.278zm11.215-.003v.003h5.474v-.003h4.105c-.096.265-.163.855-.186 1.262v3.744h-2.83V7.84h-2.277v12.656h-3.041V7.839h-2.338v4.085h-2.83V6.231c-.025-.402-.091-.944-.18-1.194zm-23.74.003l4.37 14.035.006.001c.104.343.37 1.016.715 1.426h-3.225c-.321-.406-.562-1.074-.671-1.419l-.006-.001-.832-2.853c-.649.442-1.535.488-2.343.542-1.57.105-2.895.218-3.326 1.565l-.649 2.159h-3.04L36.892 5.04zm-12.54 0h-.001zm-.001 13.011c1.712.321 3.048 1.233 3.048 3.27 0 1.815-1.382 3.52-3.305 3.52-1.413 0-2.893-.898-3.846-.898-.476 0-.807.45-.807.982h-2.71c0-2.759 1.45-3.613 3.289-3.613 1.69 0 2.889.962 3.744.962.545 0 .819-.266.819-.673 0-.732-.501-1.068-2.433-1.102H16.15v-2.59h1.217c1.523-4.495 2.575-10.157 2.575-11.367h.008c-.002-.367-.096-1.177-.214-1.502h8.802zM6.584 10.007c.173-.176.294-.396.35-.635h-.35zm-.307 0v-.635h-.35c.056.24.177.46.35.635zm.637-1.313a.379.379 0 0 0-.33.373h.385c0-.13-.02-.255-.054-.373zm-1.022.373h.385a.38.38 0 0 0-.33-.373 1.309 1.309 0 0 0-.055.373zm1.905-.909a.615.615 0 0 1-.432.433l-.148.033c.04.141.062.29.062.444h.692v-.91zm-2.904.91h.693c0-.15.021-.3.061-.444L5.5 8.591a.618.618 0 0 1-.43-.433h-.174zm1.203-.65a.69.69 0 0 1 .337.222.7.7 0 0 1 .337-.222 3.415 3.415 0 0 1-.337-.752 3.38 3.38 0 0 1-.337.752zm1.871-2.794zm0 0a1.542 1.542 0 0 0-.37.829L7.474 7.47c.158.077.274.22.32.39h.173zM4.895 7.858h.174a.605.605 0 0 1 .32-.39l-.123-1.017c-.04-.314-.172-.6-.371-.83zm1.534-3.319h.002c.142.16.23.368.23.598-.008.502-.071 1.006-.077 1.51-.012.472.132.912.306 1.343.06.118.121.235.185.35l.19-.037a.301.301 0 0 0 .24-.355.308.308 0 0 0-.3-.243l-.067.007.15-1.233a1.88 1.88 0 0 1 .99-1.49v4.378H7.251a1.658 1.658 0 0 1-.63 1.011.593.593 0 0 0-.188.2.621.621 0 0 0-.188-.2 1.648 1.648 0 0 1-.63-1.011H4.589V4.989a1.88 1.88 0 0 1 .991 1.49l.15 1.233-.067-.007a.309.309 0 0 0-.302.243.301.301 0 0 0 .241.355l.185.036c.063-.116.127-.233.185-.351.174-.431.316-.872.306-1.342-.005-.503-.069-1.007-.078-1.51 0-.222.082-.435.23-.599z"/></g></g></svg>