<svg xmlns="http://www.w3.org/2000/svg" width="32.634" height="25.743" viewBox="0 0 32.634 25.743">
  <g id="medical-mask" transform="translate(0 -66.907)">
    <g id="Group_2539" data-name="Group 2539" transform="translate(0 71.958)">
      <path id="Path_31623" data-name="Path 31623" d="M441.493,141.114a3.018,3.018,0,0,1,.124.853v1.2a1.792,1.792,0,0,1,1.551,1.773v3.476a6.016,6.016,0,0,1-1.82,4.314,13.721,13.721,0,0,1-1.017,3.1,8.088,8.088,0,0,0,4.879-7.416v-3.476A3.835,3.835,0,0,0,441.493,141.114Z" transform="translate(-412.576 -141.114)" fill="#fff302"/>
      <path id="Path_31624" data-name="Path 31624" d="M3.862,152.734a6.016,6.016,0,0,1-1.82-4.314v-3.476a1.792,1.792,0,0,1,1.551-1.773v-1.2a3.018,3.018,0,0,1,.124-.853A3.835,3.835,0,0,0,0,144.944v3.476a8.088,8.088,0,0,0,4.879,7.416,13.718,13.718,0,0,1-1.017-3.1Z" transform="translate(0 -141.115)" fill="#fff302"/>
    </g>
    <g id="Group_2540" data-name="Group 2540" transform="translate(4.526 66.907)">
      <path id="Path_31625" data-name="Path 31625" d="M84.05,73.574a12.831,12.831,0,0,0,8.327-3.019q.1-.084.195-.169a3.028,3.028,0,0,1,4,0q.1.086.2.169a12.831,12.831,0,0,0,8.327,3.019h1.267V72.131a1.021,1.021,0,0,0-.8-1c-1.749-.384-5.89-1.42-7.636-2.96a5.07,5.07,0,0,0-6.7,0c-1.747,1.54-5.887,2.577-7.636,2.96a1.021,1.021,0,0,0-.8,1v1.443H84.05Z" transform="translate(-82.783 -66.907)" fill="#fff302"/>
      <path id="Path_31626" data-name="Path 31626" d="M105.1,140.851a14.871,14.871,0,0,1-9.652-3.507q-.112-.1-.222-.192a.986.986,0,0,0-1.3,0q-.11.1-.222.192a14.871,14.871,0,0,1-9.651,3.507H82.784v5.243a11.791,11.791,0,1,0,23.582,0v-5.243Zm-3.439,10.29a21.859,21.859,0,0,1-14.17,0,1.021,1.021,0,1,1,.722-1.91,19.838,19.838,0,0,0,12.725,0,1.021,1.021,0,0,1,.722,1.91Zm.942-4.75a28.226,28.226,0,0,1-16.053,0,1.021,1.021,0,1,1,.64-1.939,26.208,26.208,0,0,0,14.774,0,1.021,1.021,0,0,1,.64,1.939Z" transform="translate(-82.784 -132.142)" fill="#fff302"/>
    </g>
  </g>
</svg>
