<svg id="social" xmlns="http://www.w3.org/2000/svg" width="51.425" height="37.562" viewBox="0 0 51.425 37.562">
  <path id="Path_5136" data-name="Path 5136" d="M12.527,77.421a5.353,5.353,0,1,0-8.783,0A4.177,4.177,0,0,0,0,81.578V90.4a4.184,4.184,0,0,0,2.259,3.715l1.207,11.119a1.507,1.507,0,0,0,1.5,1.344h6.344a1.507,1.507,0,0,0,1.5-1.344l1.207-11.119A4.185,4.185,0,0,0,16.271,90.4V81.578A4.177,4.177,0,0,0,12.527,77.421ZM8.136,72.026a2.34,2.34,0,1,1-2.34,2.34A2.342,2.342,0,0,1,8.136,72.026ZM3.013,81.578a1.157,1.157,0,0,1,1.145-1.166h7.955a1.157,1.157,0,0,1,1.145,1.166V90.4a1.157,1.157,0,0,1-1.145,1.166H4.158A1.157,1.157,0,0,1,3.013,90.4Zm3.3,21.983L5.34,94.575h5.591l-.976,8.987Z" transform="translate(0 -69.013)" fill="#1965ff"/>
  <path id="Path_5137" data-name="Path 5137" d="M181.747,385.063l-1.557-1.318a1.505,1.505,0,0,0-2.468.962h-9.416a1.505,1.505,0,0,0-2.468-.962l-1.557,1.318a1.507,1.507,0,0,0,0,2.3l1.557,1.318a1.505,1.505,0,0,0,2.468-.961h9.416a1.506,1.506,0,0,0,2.468.961l1.557-1.318a1.506,1.506,0,0,0,0-2.3Z" transform="translate(-147.302 -351.812)" fill="#1965ff"/>
  <path id="Path_5138" data-name="Path 5138" d="M362.527,77.421a5.353,5.353,0,1,0-8.783,0A4.177,4.177,0,0,0,350,81.578V90.4a4.184,4.184,0,0,0,2.259,3.715l1.207,11.119a1.507,1.507,0,0,0,1.5,1.344h6.344a1.507,1.507,0,0,0,1.5-1.344l1.207-11.119a4.184,4.184,0,0,0,2.259-3.715V81.578A4.177,4.177,0,0,0,362.527,77.421Zm-4.392-5.394a2.34,2.34,0,1,1-2.34,2.34A2.342,2.342,0,0,1,358.136,72.026Zm-5.122,9.552a1.157,1.157,0,0,1,1.145-1.166h7.955a1.157,1.157,0,0,1,1.145,1.166V90.4a1.157,1.157,0,0,1-1.145,1.166h-7.955a1.157,1.157,0,0,1-1.145-1.166Zm3.3,21.983-.976-8.987h5.591l-.976,8.987Z" transform="translate(-314.846 -69.013)" fill="#1965ff"/>
</svg>
