<svg xmlns="http://www.w3.org/2000/svg" width="44.002" height="49.283" viewBox="0 0 44.002 49.283">
  <path id="secure" d="M55.7,6.9a1.611,1.611,0,0,0-1.164-1.33L34.729.059a1.61,1.61,0,0,0-.863,0L14.058,5.568A1.611,1.611,0,0,0,12.894,6.9c-.115.826-2.736,20.345,3.987,30.055A31.624,31.624,0,0,0,33.919,49.238a1.615,1.615,0,0,0,.756,0A31.622,31.622,0,0,0,51.714,36.953C58.436,27.243,55.815,7.724,55.7,6.9Zm-8.63,11.4L33.56,31.8a1.61,1.61,0,0,1-2.278,0L22.929,23.45a1.61,1.61,0,0,1,0-2.278l1.659-1.659a1.611,1.611,0,0,1,2.278,0l5.556,5.556L43.135,14.357a1.61,1.61,0,0,1,2.278,0l1.659,1.659A1.611,1.611,0,0,1,47.071,18.293Z" transform="translate(-12.296 0)" fill="#009f46"/>
</svg>
