<svg xmlns="http://www.w3.org/2000/svg" width="47" height="46.908" viewBox="0 0 47 46.908">
  <g id="XMLID_570_" transform="translate(0 -0.5)">
    <path id="XMLID_633_" d="M239.417,241.417h2.766v2.489h-2.766Z" transform="translate(-217.346 -218.708)" fill="#1965ff"/>
    <path id="XMLID_709_" d="M197.062,321.334a5.824,5.824,0,1,0,5.824,5.824A5.831,5.831,0,0,0,197.062,321.334Zm0,2.766a3.058,3.058,0,0,1,2.547,1.367,10.647,10.647,0,0,1-5.093,0A3.058,3.058,0,0,1,197.062,324.1Zm0,6.117a3.064,3.064,0,0,1-2.864-1.985,13.433,13.433,0,0,0,5.727,0A3.064,3.064,0,0,1,197.062,330.217Z" transform="translate(-173.608 -291.257)" fill="#1965ff"/>
    <path id="XMLID_1459_" d="M325.826,239.4a5.834,5.834,0,1,0-2.895,3.39A5.786,5.786,0,0,0,325.826,239.4Zm-8.448-2.745a3.056,3.056,0,0,1,2.083-2,10.394,10.394,0,0,1-1.572,4.842,3.084,3.084,0,0,1-.328-.512A3.038,3.038,0,0,1,317.378,236.659Zm5.818,1.89a3.062,3.062,0,0,1-2.776,2.112,13.392,13.392,0,0,0,1.77-5.452,3.062,3.062,0,0,1,1.006,3.341Z" transform="translate(-285.471 -209.958)" fill="#1965ff"/>
    <path id="XMLID_1463_" d="M269.834,97.416a5.824,5.824,0,1,0-1.289-8.135A5.792,5.792,0,0,0,269.834,97.416Zm1.626-2.237a3.058,3.058,0,0,1-1.257-2.6,10.519,10.519,0,0,1,4.119,3,3.058,3.058,0,0,1-2.862-.392Zm1.319-5.5a3.1,3.1,0,0,1,.485-.038,3.059,3.059,0,0,1,2.941,3.875,13.27,13.27,0,0,0-4.633-3.369A3.047,3.047,0,0,1,272.779,89.683Z" transform="translate(-242.781 -78.415)" fill="#1965ff"/>
    <path id="XMLID_1467_" d="M116.2,96.129a5.824,5.824,0,1,0,1.288-8.135A5.82,5.82,0,0,0,116.2,96.129Zm7.733-2.945a3.057,3.057,0,0,1-4.085,2.388,10.52,10.52,0,0,1,4.121-3,3.1,3.1,0,0,1-.036.608Zm-4.819-2.953a3.062,3.062,0,0,1,3.483-.079,13.27,13.27,0,0,0-4.633,3.369A3.064,3.064,0,0,1,119.111,90.231Z" transform="translate(-104.477 -78.417)" fill="#1965ff"/>
    <path id="XMLID_1471_" d="M79.32,235.8a5.824,5.824,0,1,0-.35,4.444A5.831,5.831,0,0,0,79.32,235.8Zm-2.63.855a3.039,3.039,0,0,1-.184,2.334,3.1,3.1,0,0,1-.326.51,10.593,10.593,0,0,1-1.572-4.84A3.056,3.056,0,0,1,76.689,236.659Zm-5.818,1.89a3.062,3.062,0,0,1,1.006-3.341,13.373,13.373,0,0,0,1.771,5.452,3.062,3.062,0,0,1-2.777-2.112Z" transform="translate(-61.689 -209.959)" fill="#1965ff"/>
    <path id="XMLID_1475_" d="M34.526,44.642a23.536,23.536,0,0,0,5.512-4.1A23.454,23.454,0,0,0,6.869,7.37,23.454,23.454,0,0,0,23.454,47.408H47V44.642ZM2.766,23.954A20.688,20.688,0,1,1,23.454,44.642,20.712,20.712,0,0,1,2.766,23.954Z" fill="#1965ff"/>
  </g>
</svg>
