<svg xmlns="http://www.w3.org/2000/svg" xmlns:xlink="http://www.w3.org/1999/xlink" width="213.713" height="301.661" viewBox="0 0 213.713 301.661">
  <defs>
    <linearGradient id="linear-gradient" x1="-0.084" y1="0.241" x2="1.243" y2="0.831" gradientUnits="objectBoundingBox">
      <stop offset="0" stop-color="#e6e6e6"/>
      <stop offset="1" stop-color="#fff"/>
    </linearGradient>
    <linearGradient id="linear-gradient-2" x1="-1.879" y1="-0.723" x2="1.432" y2="0.979" xlink:href="#linear-gradient"/>
  </defs>
  <g id="Group_3256" data-name="Group 3256" transform="translate(-153.528 -13.256)" opacity="0.7">
    <g id="Group_3008" data-name="Group 3008" transform="translate(153.528 13.256)">
      <g id="Group_3005" data-name="Group 3005" opacity="0.1" style="mix-blend-mode: multiply;isolation: isolate">
        <g id="Group_2973" data-name="Group 2973" transform="translate(63.245 49.467)">
          <path id="Path_32423" data-name="Path 32423" d="M178.765,249.1h-52.1V223.4q0-14.052,3.6-21.081t15.253-19.022L168.827,159.3q5.139-6.172,5.141-15.94t-5.484-16.279a17.925,17.925,0,0,0-14.395-6.513q-8.919,0-14.912,7.712t-7.369,20.394H77.31q3.768-34.27,25.02-53.813t53.3-19.538q32.041,0,52.1,17.481t20.051,48.329q0,13.712-3.426,20.392t-4.8,9.6q-1.374,2.916-6.341,8.741t-6.684,7.539q-8.223,8.227-15.594,15.425t-9.771,11.825q-2.4,4.627-2.4,13.882Z" transform="translate(-77.31 -75.326)" fill="#fff"/>
          <path id="Path_32424" data-name="Path 32424" d="M108.52,220.776a30.163,30.163,0,0,1,21.422-51.585,30.3,30.3,0,0,1,21.422,51.585,30.627,30.627,0,0,1-42.845,0Z" transform="translate(-53.85 22.679)" fill="#fff"/>
        </g>
        <g id="Group_2974" data-name="Group 2974" transform="translate(61.205 47.873)">
          <path id="Path_32425" data-name="Path 32425" d="M177.767,248.322h-52.1V222.615q0-14.049,3.6-21.079t15.253-19.025l23.309-23.992q5.139-6.169,5.141-15.938T167.485,126.3a17.925,17.925,0,0,0-14.395-6.513q-8.919,0-14.912,7.712t-7.369,20.394h-54.5q3.768-34.27,25.02-53.813t53.3-19.536q32.041,0,52.1,17.479t20.051,48.329q0,13.712-3.426,20.394t-4.8,9.6q-1.374,2.916-6.341,8.741t-6.684,7.539q-8.223,8.23-15.595,15.425t-9.771,11.825q-2.4,4.627-2.4,13.882Z" transform="translate(-76.312 -74.546)" fill="#f7f7f7"/>
          <path id="Path_32426" data-name="Path 32426" d="M107.522,220a30.163,30.163,0,0,1,21.422-51.585A30.3,30.3,0,0,1,150.366,220a30.622,30.622,0,0,1-42.844,0Z" transform="translate(-52.852 23.458)" fill="#f7f7f7"/>
        </g>
        <g id="Group_2975" data-name="Group 2975" transform="translate(59.165 46.277)">
          <path id="Path_32427" data-name="Path 32427" d="M176.769,247.541h-52.1V221.834q0-14.049,3.6-21.079t15.253-19.022l23.309-23.992q5.139-6.172,5.141-15.94t-5.484-16.279a17.919,17.919,0,0,0-14.395-6.513q-8.919,0-14.912,7.71t-7.369,20.394h-54.5q3.768-34.267,25.02-53.813t53.3-19.536q32.041,0,52.1,17.481t20.051,48.327q0,13.712-3.426,20.394t-4.8,9.6q-1.371,2.916-6.339,8.741t-6.684,7.541q-8.223,8.227-15.595,15.425t-9.771,11.823q-2.4,4.63-2.4,13.882Z" transform="translate(-75.314 -73.765)" fill="#efefef"/>
          <path id="Path_32428" data-name="Path 32428" d="M106.524,219.213a30.161,30.161,0,0,1,21.422-51.583,30.295,30.295,0,0,1,21.422,51.583,30.622,30.622,0,0,1-42.844,0Z" transform="translate(-51.854 24.24)" fill="#efefef"/>
        </g>
        <g id="Group_2976" data-name="Group 2976" transform="translate(57.125 44.68)">
          <path id="Path_32429" data-name="Path 32429" d="M175.771,246.762h-52.1V221.055q0-14.052,3.6-21.081t15.253-19.022l23.309-23.992q5.139-6.172,5.141-15.94t-5.484-16.279a17.925,17.925,0,0,0-14.395-6.513q-8.919,0-14.912,7.712t-7.369,20.394h-54.5q3.768-34.27,25.02-53.813t53.3-19.538q32.041,0,52.1,17.481t20.051,48.329q0,13.712-3.426,20.394t-4.8,9.6q-1.371,2.916-6.339,8.741t-6.684,7.539q-8.223,8.226-15.595,15.425t-9.771,11.825q-2.4,4.627-2.4,13.882Z" transform="translate(-74.316 -72.984)" fill="#e6e6e6"/>
          <path id="Path_32430" data-name="Path 32430" d="M105.526,218.434a30.163,30.163,0,0,1,21.422-51.585,30.3,30.3,0,0,1,21.422,51.585,30.622,30.622,0,0,1-42.844,0Z" transform="translate(-50.856 25.021)" fill="#e6e6e6"/>
        </g>
        <g id="Group_2977" data-name="Group 2977" transform="translate(55.085 43.086)">
          <path id="Path_32431" data-name="Path 32431" d="M174.773,245.98h-52.1V220.273q0-14.049,3.6-21.079t15.253-19.024l23.309-23.992q5.139-6.169,5.141-15.938t-5.484-16.281a17.926,17.926,0,0,0-14.4-6.513q-8.916,0-14.91,7.712t-7.369,20.394h-54.5q3.768-34.27,25.02-53.813t53.3-19.536q32.041,0,52.1,17.479t20.049,48.329q0,13.712-3.424,20.394t-4.8,9.6q-1.371,2.916-6.339,8.741t-6.684,7.539q-8.227,8.23-15.595,15.425t-9.771,11.825q-2.4,4.627-2.4,13.882Z" transform="translate(-73.318 -72.204)" fill="#dedede"/>
          <path id="Path_32432" data-name="Path 32432" d="M104.528,217.653a30.163,30.163,0,0,1,21.422-51.585,30.3,30.3,0,0,1,21.422,51.585,30.622,30.622,0,0,1-42.844,0Z" transform="translate(-49.858 25.8)" fill="#dedede"/>
        </g>
        <g id="Group_2978" data-name="Group 2978" transform="translate(53.045 41.489)">
          <path id="Path_32433" data-name="Path 32433" d="M173.775,245.2h-52.1V219.492q0-14.049,3.6-21.079t15.251-19.022L163.837,155.4q5.136-6.172,5.139-15.94t-5.482-16.279a17.92,17.92,0,0,0-14.4-6.513q-8.916,0-14.91,7.71t-7.369,20.394H72.32Q76.088,110.5,97.34,90.959t53.3-19.536q32.041,0,52.1,17.481t20.049,48.327q0,13.712-3.426,20.394t-4.8,9.6q-1.371,2.916-6.339,8.741t-6.684,7.541q-8.226,8.226-15.594,15.425t-9.771,11.823q-2.4,4.63-2.4,13.882Z" transform="translate(-72.32 -71.423)" fill="#d6d6d6"/>
          <path id="Path_32434" data-name="Path 32434" d="M103.53,216.871a30.161,30.161,0,0,1,21.422-51.583,30.293,30.293,0,0,1,21.42,51.583,30.62,30.62,0,0,1-42.842,0Z" transform="translate(-48.86 26.582)" fill="#d6d6d6"/>
        </g>
        <g id="Group_2979" data-name="Group 2979" transform="translate(51.005 39.893)">
          <path id="Path_32435" data-name="Path 32435" d="M172.777,244.42h-52.1V218.713q0-14.052,3.6-21.081t15.251-19.022l23.311-23.992q5.136-6.172,5.139-15.94T162.5,122.4a17.926,17.926,0,0,0-14.4-6.513q-8.916,0-14.91,7.712t-7.369,20.394h-54.5q3.768-34.271,25.02-53.813t53.3-19.538q32.041,0,52.1,17.481t20.049,48.329q0,13.712-3.426,20.394t-4.8,9.6q-1.371,2.916-6.339,8.741t-6.684,7.539q-8.226,8.227-15.594,15.425t-9.771,11.825q-2.4,4.627-2.4,13.882Z" transform="translate(-71.322 -70.642)" fill="#cecece"/>
          <path id="Path_32436" data-name="Path 32436" d="M102.532,216.092a30.163,30.163,0,0,1,21.422-51.585,30.295,30.295,0,0,1,21.42,51.585,30.62,30.62,0,0,1-42.842,0Z" transform="translate(-47.862 27.363)" fill="#cecece"/>
        </g>
        <g id="Group_2980" data-name="Group 2980" transform="translate(48.965 38.298)">
          <path id="Path_32437" data-name="Path 32437" d="M171.779,243.638h-52.1V217.931q0-14.049,3.6-21.079t15.251-19.024l23.309-23.992q5.139-6.169,5.141-15.938T161.5,121.617a17.926,17.926,0,0,0-14.4-6.513q-8.916,0-14.91,7.712t-7.369,20.394h-54.5Q74.089,108.94,95.344,89.4t53.3-19.536q32.041,0,52.1,17.479t20.049,48.329q0,13.712-3.426,20.394t-4.8,9.6q-1.371,2.916-6.341,8.741t-6.682,7.539q-8.227,8.23-15.594,15.425t-9.771,11.825q-2.4,4.627-2.4,13.882Z" transform="translate(-70.324 -69.862)" fill="#c5c5c5"/>
          <path id="Path_32438" data-name="Path 32438" d="M101.534,215.311a30.163,30.163,0,0,1,21.422-51.585,30.295,30.295,0,0,1,21.42,51.585,30.62,30.62,0,0,1-42.842,0Z" transform="translate(-46.864 28.142)" fill="#c5c5c5"/>
        </g>
        <g id="Group_2981" data-name="Group 2981" transform="translate(46.925 36.702)">
          <path id="Path_32439" data-name="Path 32439" d="M170.779,242.857h-52.1V217.15q0-14.049,3.6-21.079t15.251-19.022l23.309-23.992q5.139-6.172,5.141-15.94T160.5,120.838a17.92,17.92,0,0,0-14.4-6.513q-8.916,0-14.91,7.71t-7.371,20.394h-54.5q3.765-34.267,25.02-53.813t53.3-19.536q32.041,0,52.1,17.481t20.049,48.327q0,13.712-3.426,20.394t-4.8,9.6q-1.371,2.916-6.341,8.741t-6.682,7.541q-8.227,8.227-15.594,15.425t-9.771,11.823q-2.4,4.63-2.4,13.882Z" transform="translate(-69.326 -69.081)" fill="#bdbdbd"/>
          <path id="Path_32440" data-name="Path 32440" d="M100.536,214.529a30.161,30.161,0,0,1,21.422-51.583,30.293,30.293,0,0,1,21.42,51.583,29.131,29.131,0,0,1-21.42,8.741A29.122,29.122,0,0,1,100.536,214.529Z" transform="translate(-45.866 28.924)" fill="#bdbdbd"/>
        </g>
        <g id="Group_2982" data-name="Group 2982" transform="translate(44.885 35.105)">
          <path id="Path_32441" data-name="Path 32441" d="M169.781,242.078h-52.1V216.371q0-14.052,3.6-21.081t15.251-19.022l23.309-23.992q5.139-6.172,5.141-15.94T159.5,120.057a17.926,17.926,0,0,0-14.4-6.513q-8.916,0-14.91,7.712t-7.371,20.394h-54.5q3.765-34.27,25.02-53.813t53.3-19.538q32.041,0,52.1,17.481t20.049,48.329q0,13.712-3.426,20.394t-4.8,9.6q-1.371,2.916-6.341,8.741t-6.682,7.539q-8.227,8.227-15.595,15.425t-9.771,11.825q-2.4,4.627-2.4,13.882Z" transform="translate(-68.328 -68.3)" fill="#b5b5b5"/>
          <path id="Path_32442" data-name="Path 32442" d="M99.538,213.75a30.163,30.163,0,0,1,21.422-51.585,30.295,30.295,0,0,1,21.42,51.585,29.139,29.139,0,0,1-21.42,8.741A29.13,29.13,0,0,1,99.538,213.75Z" transform="translate(-44.868 29.705)" fill="#b5b5b5"/>
        </g>
        <g id="Group_2983" data-name="Group 2983" transform="translate(42.844 33.511)">
          <path id="Path_32443" data-name="Path 32443" d="M168.783,241.3h-52.1V215.589q0-14.049,3.6-21.079t15.251-19.025l23.309-23.992q5.139-6.169,5.141-15.938T158.5,119.275a17.922,17.922,0,0,0-14.395-6.513q-8.919,0-14.912,7.712t-7.369,20.394H67.33Q71.1,106.6,92.35,87.056t53.3-19.536q32.041,0,52.1,17.479T217.8,133.328q0,13.712-3.426,20.394t-4.8,9.6q-1.371,2.916-6.341,8.741t-6.682,7.539q-8.226,8.23-15.594,15.425t-9.771,11.825q-2.4,4.627-2.4,13.882Z" transform="translate(-67.33 -67.52)" fill="#adadad"/>
          <path id="Path_32444" data-name="Path 32444" d="M98.541,212.969a30.163,30.163,0,0,1,21.42-51.585,30.3,30.3,0,0,1,21.422,51.585,29.132,29.132,0,0,1-21.422,8.741A29.117,29.117,0,0,1,98.541,212.969Z" transform="translate(-43.871 30.484)" fill="#adadad"/>
        </g>
        <g id="Group_2984" data-name="Group 2984" transform="translate(40.804 31.915)">
          <path id="Path_32445" data-name="Path 32445" d="M167.785,240.515h-52.1V214.808q0-14.049,3.6-21.079t15.251-19.022l23.309-23.992q5.139-6.172,5.141-15.94T157.5,118.5a17.919,17.919,0,0,0-14.395-6.513q-8.919,0-14.912,7.71t-7.369,20.394h-54.5Q70.1,105.82,91.352,86.275t53.3-19.536q32.041,0,52.1,17.481T216.8,132.547q0,13.712-3.426,20.394t-4.8,9.6q-1.374,2.916-6.341,8.741t-6.682,7.541q-8.227,8.226-15.6,15.425t-9.769,11.823q-2.4,4.63-2.4,13.882Z" transform="translate(-66.332 -66.739)" fill="#a5a5a5"/>
          <path id="Path_32446" data-name="Path 32446" d="M97.543,212.187a30.161,30.161,0,0,1,21.42-51.583,30.295,30.295,0,0,1,21.422,51.583,29.132,29.132,0,0,1-21.422,8.741A29.118,29.118,0,0,1,97.543,212.187Z" transform="translate(-42.873 31.266)" fill="#a5a5a5"/>
        </g>
        <g id="Group_2985" data-name="Group 2985" transform="translate(38.764 30.318)">
          <path id="Path_32447" data-name="Path 32447" d="M166.787,239.736h-52.1V214.029q0-14.052,3.6-21.081t15.251-19.022l23.309-23.992q5.139-6.172,5.141-15.94t-5.484-16.279a17.925,17.925,0,0,0-14.395-6.513q-8.919,0-14.912,7.712t-7.369,20.394h-54.5Q69.1,105.038,90.354,85.5t53.3-19.538q32.041,0,52.1,17.481T215.8,131.768q0,13.712-3.426,20.394t-4.8,9.6q-1.374,2.916-6.341,8.741t-6.682,7.539q-8.226,8.227-15.6,15.425t-9.769,11.825q-2.4,4.627-2.4,13.882Z" transform="translate(-65.334 -65.958)" fill="#9c9c9c"/>
          <path id="Path_32448" data-name="Path 32448" d="M96.545,211.408a30.163,30.163,0,0,1,21.42-51.585,30.3,30.3,0,0,1,21.422,51.585,29.14,29.14,0,0,1-21.422,8.741A29.126,29.126,0,0,1,96.545,211.408Z" transform="translate(-41.875 32.047)" fill="#9c9c9c"/>
        </g>
        <g id="Group_2986" data-name="Group 2986" transform="translate(36.724 28.724)">
          <path id="Path_32449" data-name="Path 32449" d="M165.789,238.954h-52.1V213.247q0-14.049,3.6-21.079t15.251-19.024l23.309-23.992q5.139-6.169,5.141-15.938t-5.484-16.281a17.925,17.925,0,0,0-14.395-6.513q-8.919,0-14.912,7.712t-7.369,20.394h-54.5q3.765-34.27,25.02-53.813t53.3-19.536q32.044,0,52.1,17.479T214.8,130.986q0,13.712-3.426,20.394t-4.8,9.6q-1.374,2.916-6.341,8.741t-6.682,7.539q-8.227,8.23-15.6,15.425t-9.769,11.825q-2.4,4.627-2.4,13.882Z" transform="translate(-64.336 -65.178)" fill="#949494"/>
          <path id="Path_32450" data-name="Path 32450" d="M95.547,210.627a30.163,30.163,0,0,1,21.42-51.585,30.3,30.3,0,0,1,21.422,51.585,29.135,29.135,0,0,1-21.422,8.741A29.118,29.118,0,0,1,95.547,210.627Z" transform="translate(-40.877 32.826)" fill="#949494"/>
        </g>
        <g id="Group_2987" data-name="Group 2987" transform="translate(34.684 27.127)">
          <path id="Path_32451" data-name="Path 32451" d="M164.791,238.173h-52.1V212.466q0-14.049,3.6-21.079t15.253-19.022l23.309-23.992q5.139-6.172,5.141-15.94t-5.484-16.279a17.919,17.919,0,0,0-14.395-6.513q-8.919,0-14.912,7.71t-7.369,20.394h-54.5q3.765-34.267,25.02-53.813t53.3-19.536q32.044,0,52.1,17.481T213.8,130.2q0,13.712-3.426,20.394t-4.8,9.6q-1.374,2.916-6.341,8.741t-6.684,7.541Q184.331,184.7,176.96,191.9t-9.769,11.823q-2.4,4.63-2.4,13.882Z" transform="translate(-63.338 -64.397)" fill="#8c8c8c"/>
          <path id="Path_32452" data-name="Path 32452" d="M94.547,209.845a30.161,30.161,0,0,1,21.422-51.583,30.295,30.295,0,0,1,21.422,51.583,29.135,29.135,0,0,1-21.422,8.741A29.125,29.125,0,0,1,94.547,209.845Z" transform="translate(-39.879 33.608)" fill="#8c8c8c"/>
        </g>
        <g id="Group_2988" data-name="Group 2988" transform="translate(32.644 25.531)">
          <path id="Path_32453" data-name="Path 32453" d="M163.793,237.394h-52.1V211.687q0-14.052,3.6-21.081t15.253-19.022l23.309-23.992q5.139-6.172,5.141-15.94t-5.484-16.279a17.925,17.925,0,0,0-14.395-6.512q-8.919,0-14.912,7.712t-7.369,20.394H62.34q3.765-34.27,25.02-53.813t53.3-19.538q32.044,0,52.1,17.481t20.051,48.329q0,13.712-3.426,20.394t-4.8,9.6q-1.374,2.916-6.341,8.741t-6.684,7.539q-8.223,8.227-15.594,15.425t-9.769,11.825q-2.4,4.627-2.4,13.882Z" transform="translate(-62.34 -63.616)" fill="#848484"/>
          <path id="Path_32454" data-name="Path 32454" d="M93.549,209.066a30.163,30.163,0,0,1,21.422-51.585,30.3,30.3,0,0,1,21.422,51.585,29.143,29.143,0,0,1-21.422,8.741A29.133,29.133,0,0,1,93.549,209.066Z" transform="translate(-38.881 34.389)" fill="#848484"/>
        </g>
        <g id="Group_2989" data-name="Group 2989" transform="translate(30.602 23.936)">
          <path id="Path_32455" data-name="Path 32455" d="M162.8,236.612H110.7V210.9q0-14.049,3.6-21.079T129.549,170.8l23.309-23.992Q158,140.641,158,130.872t-5.484-16.281a17.925,17.925,0,0,0-14.395-6.513q-8.919,0-14.912,7.712t-7.369,20.394h-54.5q3.768-34.271,25.02-53.813t53.3-19.536q32.041,0,52.1,17.479t20.051,48.329q0,13.712-3.426,20.394t-4.8,9.6q-1.374,2.916-6.341,8.741t-6.684,7.539q-8.223,8.23-15.594,15.425t-9.771,11.825q-2.4,4.627-2.4,13.882Z" transform="translate(-61.341 -62.836)" fill="#7b7b7b"/>
          <path id="Path_32456" data-name="Path 32456" d="M92.551,208.285A30.163,30.163,0,0,1,113.973,156.7,30.3,30.3,0,0,1,135.4,208.285a29.135,29.135,0,0,1-21.422,8.741A29.125,29.125,0,0,1,92.551,208.285Z" transform="translate(-37.881 35.168)" fill="#7b7b7b"/>
        </g>
        <g id="Group_2990" data-name="Group 2990" transform="translate(28.562 22.34)">
          <path id="Path_32457" data-name="Path 32457" d="M161.8,235.833H109.7V210.124q0-14.049,3.6-21.079t15.253-19.022l23.309-23.992Q157,139.859,157,130.091t-5.484-16.279a17.919,17.919,0,0,0-14.395-6.513q-8.919,0-14.912,7.712T114.841,135.4h-54.5q3.768-34.267,25.02-53.813t53.3-19.536q32.041,0,52.1,17.481t20.051,48.327q0,13.715-3.426,20.394t-4.8,9.6q-1.374,2.913-6.341,8.739t-6.684,7.541q-8.223,8.227-15.594,15.425T164.2,201.385q-2.4,4.627-2.4,13.88Z" transform="translate(-60.343 -62.055)" fill="#737373"/>
          <path id="Path_32458" data-name="Path 32458" d="M91.553,207.5a30.162,30.162,0,0,1,21.422-51.583A30.295,30.295,0,0,1,134.4,207.5a29.135,29.135,0,0,1-21.422,8.741A29.125,29.125,0,0,1,91.553,207.5Z" transform="translate(-36.883 35.95)" fill="#737373"/>
        </g>
        <g id="Group_2991" data-name="Group 2991" transform="translate(26.522 20.744)">
          <path id="Path_32459" data-name="Path 32459" d="M160.8,235.052H108.7V209.345q0-14.052,3.6-21.081t15.253-19.022l23.309-23.992Q156,139.078,156,129.31t-5.484-16.279a17.925,17.925,0,0,0-14.395-6.513q-8.919,0-14.912,7.712t-7.369,20.394h-54.5q3.768-34.27,25.02-53.813t53.3-19.538q32.041,0,52.1,17.481t20.051,48.329q0,13.712-3.426,20.394t-4.8,9.6q-1.371,2.916-6.339,8.741t-6.684,7.539q-8.223,8.226-15.594,15.425T163.2,200.6q-2.4,4.627-2.4,13.882Z" transform="translate(-59.345 -61.274)" fill="#6b6b6b"/>
          <path id="Path_32460" data-name="Path 32460" d="M90.555,206.724a30.163,30.163,0,0,1,21.422-51.585A30.3,30.3,0,0,1,133.4,206.724a29.143,29.143,0,0,1-21.422,8.741A29.133,29.133,0,0,1,90.555,206.724Z" transform="translate(-35.885 36.731)" fill="#6b6b6b"/>
        </g>
        <g id="Group_2992" data-name="Group 2992" transform="translate(24.482 19.149)">
          <path id="Path_32461" data-name="Path 32461" d="M159.8,234.27H107.7V208.563q0-14.049,3.6-21.079t15.253-19.024l23.309-23.992Q155,138.3,155,128.53t-5.484-16.281a17.926,17.926,0,0,0-14.4-6.513q-8.916,0-14.91,7.712t-7.369,20.394h-54.5q3.768-34.27,25.02-53.813t53.3-19.536q32.041,0,52.1,17.479T208.814,126.3q0,13.712-3.424,20.394t-4.8,9.6q-1.371,2.916-6.339,8.741t-6.684,7.539Q179.339,180.8,171.971,188T162.2,199.822q-2.4,4.627-2.4,13.882Z" transform="translate(-58.347 -60.494)" fill="#636363"/>
          <path id="Path_32462" data-name="Path 32462" d="M89.557,205.943a30.163,30.163,0,0,1,21.422-51.585A30.3,30.3,0,0,1,132.4,205.943a29.135,29.135,0,0,1-21.422,8.741A29.125,29.125,0,0,1,89.557,205.943Z" transform="translate(-34.887 37.51)" fill="#636363"/>
        </g>
        <g id="Group_2993" data-name="Group 2993" transform="translate(22.442 17.553)">
          <path id="Path_32463" data-name="Path 32463" d="M158.8,233.491h-52.1V207.782q0-14.049,3.6-21.079t15.253-19.022l23.309-23.992q5.139-6.172,5.141-15.94t-5.484-16.279a17.92,17.92,0,0,0-14.4-6.513q-8.916,0-14.91,7.712t-7.369,20.392h-54.5q3.768-34.267,25.02-53.813t53.3-19.536q32.041,0,52.1,17.481t20.049,48.327q0,13.715-3.424,20.394t-4.8,9.6q-1.371,2.913-6.339,8.739t-6.684,7.541q-8.226,8.227-15.594,15.425T161.2,199.043q-2.4,4.627-2.4,13.879Z" transform="translate(-57.349 -59.713)" fill="#5a5a5a"/>
          <path id="Path_32464" data-name="Path 32464" d="M88.559,205.161a30.162,30.162,0,0,1,21.422-51.583A30.295,30.295,0,0,1,131.4,205.161a29.135,29.135,0,0,1-21.422,8.741A29.125,29.125,0,0,1,88.559,205.161Z" transform="translate(-33.889 38.292)" fill="#5a5a5a"/>
        </g>
        <g id="Group_2994" data-name="Group 2994" transform="translate(20.402 15.956)">
          <path id="Path_32465" data-name="Path 32465" d="M157.806,232.71h-52.1V207q0-14.052,3.6-21.081T124.557,166.9l23.311-23.992q5.136-6.172,5.139-15.94t-5.482-16.279a17.926,17.926,0,0,0-14.4-6.513q-8.916,0-14.91,7.712t-7.369,20.394h-54.5q3.768-34.271,25.02-53.813t53.3-19.538q32.041,0,52.1,17.481t20.049,48.329q0,13.712-3.426,20.394t-4.8,9.6q-1.371,2.916-6.339,8.741t-6.684,7.539q-8.226,8.227-15.594,15.425T160.2,198.262q-2.4,4.627-2.4,13.882Z" transform="translate(-56.351 -58.932)" fill="#525252"/>
          <path id="Path_32466" data-name="Path 32466" d="M87.561,204.382A30.163,30.163,0,0,1,108.983,152.8a30.295,30.295,0,0,1,21.42,51.585,29.135,29.135,0,0,1-21.42,8.741A29.133,29.133,0,0,1,87.561,204.382Z" transform="translate(-32.891 39.073)" fill="#525252"/>
        </g>
        <g id="Group_2995" data-name="Group 2995" transform="translate(18.362 14.362)">
          <path id="Path_32467" data-name="Path 32467" d="M156.808,231.928h-52.1V206.221q0-14.049,3.6-21.079t15.251-19.025l23.309-23.992q5.139-6.169,5.141-15.938t-5.482-16.281a17.926,17.926,0,0,0-14.4-6.513q-8.916,0-14.91,7.712T109.851,131.5h-54.5q3.765-34.27,25.02-53.813t53.3-19.536q32.041,0,52.1,17.479T205.82,123.96q0,13.712-3.426,20.394t-4.8,9.6q-1.371,2.916-6.341,8.741t-6.682,7.539q-8.226,8.23-15.594,15.425t-9.771,11.825q-2.4,4.627-2.4,13.882Z" transform="translate(-55.353 -58.152)" fill="#4a4a4a"/>
          <path id="Path_32468" data-name="Path 32468" d="M86.563,203.6a30.163,30.163,0,0,1,21.422-51.585,30.295,30.295,0,0,1,21.42,51.585,29.127,29.127,0,0,1-21.42,8.741A29.122,29.122,0,0,1,86.563,203.6Z" transform="translate(-31.893 39.852)" fill="#4a4a4a"/>
        </g>
        <g id="Group_2996" data-name="Group 2996" transform="translate(16.322 12.765)">
          <path id="Path_32469" data-name="Path 32469" d="M155.81,231.149h-52.1V205.44q0-14.049,3.6-21.079t15.251-19.022l23.309-23.992q5.139-6.172,5.141-15.94t-5.482-16.279a17.92,17.92,0,0,0-14.4-6.513q-8.916,0-14.91,7.712t-7.369,20.392h-54.5q3.765-34.267,25.02-53.813t53.3-19.536q32.041,0,52.1,17.481t20.049,48.327q0,13.715-3.426,20.394t-4.8,9.6q-1.371,2.913-6.341,8.739t-6.682,7.541q-8.226,8.226-15.594,15.425T158.208,196.7q-2.4,4.627-2.4,13.88Z" transform="translate(-54.355 -57.371)" fill="#424242"/>
          <path id="Path_32470" data-name="Path 32470" d="M85.565,202.819a30.162,30.162,0,0,1,21.422-51.583,30.293,30.293,0,0,1,21.42,51.583,29.13,29.13,0,0,1-21.42,8.741A29.122,29.122,0,0,1,85.565,202.819Z" transform="translate(-30.895 40.634)" fill="#424242"/>
        </g>
        <g id="Group_2997" data-name="Group 2997" transform="translate(14.282 11.169)">
          <path id="Path_32471" data-name="Path 32471" d="M154.81,230.368h-52.1V204.661q0-14.052,3.6-21.081t15.251-19.022l23.309-23.992q5.139-6.172,5.141-15.94t-5.482-16.279a17.926,17.926,0,0,0-14.4-6.513q-8.916,0-14.91,7.712t-7.371,20.394h-54.5q3.765-34.27,25.02-53.813t53.3-19.538q32.041,0,52.1,17.481T203.824,122.4q0,13.712-3.426,20.394t-4.8,9.6q-1.371,2.916-6.341,8.741t-6.682,7.539q-8.226,8.227-15.594,15.425T157.21,195.92q-2.4,4.627-2.4,13.882Z" transform="translate(-53.357 -56.59)" fill="#3a3a3a"/>
          <path id="Path_32472" data-name="Path 32472" d="M84.567,202.04a30.163,30.163,0,0,1,21.422-51.585,30.295,30.295,0,0,1,21.42,51.585,29.138,29.138,0,0,1-21.42,8.741A29.13,29.13,0,0,1,84.567,202.04Z" transform="translate(-29.897 41.415)" fill="#3a3a3a"/>
        </g>
        <g id="Group_2998" data-name="Group 2998" transform="translate(12.242 9.575)">
          <path id="Path_32473" data-name="Path 32473" d="M153.812,229.586h-52.1V203.879q0-14.049,3.6-21.079t15.251-19.025l23.309-23.992q5.139-6.169,5.141-15.938t-5.484-16.281a17.922,17.922,0,0,0-14.395-6.513q-8.919,0-14.912,7.712t-7.369,20.394h-54.5q3.765-34.27,25.02-53.813t53.3-19.536q32.041,0,52.1,17.479t20.049,48.329q0,13.712-3.426,20.394t-4.8,9.6q-1.371,2.916-6.341,8.741t-6.682,7.539q-8.227,8.23-15.594,15.425t-9.771,11.825q-2.4,4.627-2.4,13.882Z" transform="translate(-52.359 -55.81)" fill="#313131"/>
          <path id="Path_32474" data-name="Path 32474" d="M83.57,201.259a30.163,30.163,0,0,1,21.42-51.585,30.3,30.3,0,0,1,21.422,51.585A29.132,29.132,0,0,1,104.99,210,29.117,29.117,0,0,1,83.57,201.259Z" transform="translate(-28.9 42.194)" fill="#313131"/>
        </g>
        <g id="Group_2999" data-name="Group 2999" transform="translate(10.202 7.978)">
          <path id="Path_32475" data-name="Path 32475" d="M152.814,228.807h-52.1V203.1q0-14.049,3.6-21.079T119.567,163l23.309-23.992q5.139-6.172,5.141-15.94t-5.484-16.279a17.916,17.916,0,0,0-14.395-6.513q-8.919,0-14.912,7.712t-7.369,20.392h-54.5q3.765-34.267,25.02-53.813t53.3-19.536q32.041,0,52.1,17.481t20.049,48.327q0,13.715-3.426,20.394t-4.8,9.6q-1.371,2.913-6.341,8.739t-6.682,7.541q-8.227,8.227-15.594,15.425t-9.771,11.825q-2.4,4.627-2.4,13.879Z" transform="translate(-51.361 -55.029)" fill="#292929"/>
          <path id="Path_32476" data-name="Path 32476" d="M82.572,200.477a30.162,30.162,0,0,1,21.42-51.583,30.295,30.295,0,0,1,21.422,51.583,29.132,29.132,0,0,1-21.422,8.741A29.118,29.118,0,0,1,82.572,200.477Z" transform="translate(-27.902 42.976)" fill="#292929"/>
        </g>
        <g id="Group_3000" data-name="Group 3000" transform="translate(8.162 6.382)">
          <path id="Path_32477" data-name="Path 32477" d="M151.816,228.026h-52.1V202.319q0-14.052,3.6-21.081t15.251-19.022l23.309-23.992q5.139-6.172,5.141-15.94T141.534,106a17.925,17.925,0,0,0-14.395-6.513q-8.919,0-14.912,7.712T104.859,127.6h-54.5q3.765-34.271,25.02-53.813t53.3-19.538q32.041,0,52.1,17.481t20.051,48.329q0,13.712-3.426,20.394t-4.8,9.6q-1.374,2.916-6.341,8.741t-6.682,7.539q-8.227,8.227-15.6,15.425t-9.769,11.825q-2.4,4.627-2.4,13.882Z" transform="translate(-50.363 -54.248)" fill="#212121"/>
          <path id="Path_32478" data-name="Path 32478" d="M81.574,199.7a30.163,30.163,0,0,1,21.42-51.585A30.3,30.3,0,0,1,124.416,199.7a29.14,29.14,0,0,1-21.422,8.741A29.125,29.125,0,0,1,81.574,199.7Z" transform="translate(-26.904 43.757)" fill="#212121"/>
        </g>
        <g id="Group_3001" data-name="Group 3001" transform="translate(6.122 4.787)">
          <path id="Path_32479" data-name="Path 32479" d="M150.818,227.244H98.72V201.537q0-14.049,3.6-21.079t15.251-19.024l23.309-23.992q5.139-6.169,5.141-15.938t-5.484-16.281a17.925,17.925,0,0,0-14.395-6.513q-8.919,0-14.912,7.712t-7.369,20.394h-54.5Q53.13,92.546,74.385,73t53.3-19.536q32.044,0,52.1,17.479t20.051,48.329q0,13.712-3.426,20.394t-4.8,9.6q-1.374,2.916-6.341,8.741t-6.682,7.539q-8.226,8.23-15.6,15.425T153.218,192.8q-2.4,4.627-2.4,13.882Z" transform="translate(-49.365 -53.468)" fill="#191919"/>
          <path id="Path_32480" data-name="Path 32480" d="M80.576,198.917A30.163,30.163,0,0,1,102,147.332a30.3,30.3,0,0,1,21.422,51.585A29.135,29.135,0,0,1,102,207.658,29.117,29.117,0,0,1,80.576,198.917Z" transform="translate(-25.906 44.536)" fill="#191919"/>
        </g>
        <g id="Group_3002" data-name="Group 3002" transform="translate(4.082 3.191)">
          <path id="Path_32481" data-name="Path 32481" d="M149.82,226.465h-52.1V200.756q0-14.049,3.6-21.079t15.251-19.022l23.309-23.992q5.139-6.172,5.141-15.94t-5.484-16.279a17.919,17.919,0,0,0-14.395-6.513q-8.919,0-14.912,7.712t-7.369,20.392h-54.5q3.765-34.267,25.02-53.813t53.3-19.536q32.044,0,52.1,17.481t20.051,48.327q0,13.715-3.426,20.394t-4.8,9.6q-1.374,2.913-6.341,8.739t-6.682,7.541q-8.227,8.226-15.6,15.425t-9.769,11.825q-2.4,4.627-2.4,13.879Z" transform="translate(-48.367 -52.687)" fill="#101010"/>
          <path id="Path_32482" data-name="Path 32482" d="M79.578,198.135A30.162,30.162,0,0,1,101,146.552a30.295,30.295,0,0,1,21.422,51.583A29.135,29.135,0,0,1,101,206.876,29.118,29.118,0,0,1,79.578,198.135Z" transform="translate(-24.908 45.318)" fill="#101010"/>
        </g>
        <g id="Group_3003" data-name="Group 3003" transform="translate(2.042 1.594)">
          <path id="Path_32483" data-name="Path 32483" d="M148.822,225.684h-52.1V199.977q0-14.052,3.6-21.081t15.253-19.022l23.309-23.992q5.139-6.172,5.141-15.94t-5.484-16.279a17.925,17.925,0,0,0-14.395-6.513q-8.919,0-14.912,7.712t-7.369,20.394h-54.5q3.765-34.27,25.02-53.813t53.3-19.538q32.044,0,52.1,17.481t20.051,48.329q0,13.712-3.426,20.394t-4.8,9.6q-1.374,2.916-6.341,8.741t-6.684,7.539q-8.223,8.227-15.594,15.425t-9.769,11.825q-2.4,4.627-2.4,13.882Z" transform="translate(-47.369 -51.906)" fill="#080808"/>
          <path id="Path_32484" data-name="Path 32484" d="M78.578,197.356A30.163,30.163,0,0,1,100,145.771a30.3,30.3,0,0,1,21.422,51.585A29.143,29.143,0,0,1,100,206.1,29.133,29.133,0,0,1,78.578,197.356Z" transform="translate(-23.91 46.099)" fill="#080808"/>
        </g>
        <g id="Group_3004" data-name="Group 3004">
          <path id="Path_32485" data-name="Path 32485" d="M147.825,224.9h-52.1V199.195q0-14.049,3.6-21.079t15.253-19.025L137.887,135.1q5.139-6.169,5.141-15.938t-5.484-16.281a17.925,17.925,0,0,0-14.395-6.513q-8.919,0-14.912,7.712t-7.369,20.394H46.37Q50.138,90.2,71.39,70.662t53.3-19.536q32.041,0,52.1,17.479t20.051,48.329q0,13.712-3.426,20.394t-4.8,9.6q-1.374,2.916-6.341,8.741t-6.684,7.539q-8.223,8.23-15.594,15.425t-9.771,11.825q-2.4,4.627-2.4,13.882Z" transform="translate(-46.37 -51.126)"/>
          <path id="Path_32486" data-name="Path 32486" d="M77.58,196.575A30.163,30.163,0,0,1,99,144.99a30.3,30.3,0,0,1,21.422,51.585A29.135,29.135,0,0,1,99,205.316,29.125,29.125,0,0,1,77.58,196.575Z" transform="translate(-22.91 46.878)"/>
        </g>
      </g>
      <g id="Group_3006" data-name="Group 3006">
        <path id="Path_32487" data-name="Path 32487" d="M147.825,224.9h-52.1V199.195q0-14.049,3.6-21.079t15.253-19.025L137.887,135.1q5.139-6.169,5.141-15.938t-5.484-16.281a17.925,17.925,0,0,0-14.395-6.513q-8.919,0-14.912,7.712t-7.369,20.394H46.37Q50.138,90.2,71.39,70.662t53.3-19.536q32.041,0,52.1,17.479t20.051,48.329q0,13.712-3.426,20.394t-4.8,9.6q-1.374,2.916-6.341,8.741t-6.684,7.539q-8.223,8.23-15.594,15.425t-9.771,11.825q-2.4,4.627-2.4,13.882Z" transform="translate(-46.37 -51.126)" fill="url(#linear-gradient)"/>
        <path id="Path_32488" data-name="Path 32488" d="M77.58,196.575A30.163,30.163,0,0,1,99,144.99a30.3,30.3,0,0,1,21.422,51.585A29.135,29.135,0,0,1,99,205.316,29.125,29.125,0,0,1,77.58,196.575Z" transform="translate(-22.91 46.878)" fill="url(#linear-gradient-2)"/>
      </g>
      <g id="Group_3007" data-name="Group 3007">
        <path id="Path_32489" data-name="Path 32489" d="M124.69,53.334c20.715,0,37.755,5.7,50.647,16.937,12.8,11.161,19.292,26.86,19.292,46.663,0,8.737-1.071,15.259-3.183,19.384-2.336,4.552-3.917,7.714-4.832,9.667-.824,1.75-2.849,4.526-6.022,8.248-3.252,3.812-5.462,6.306-6.566,7.41-5.3,5.3-10.539,10.484-15.576,15.406-5.135,5.012-8.469,9.066-10.188,12.387-1.78,3.434-2.647,8.307-2.647,14.9v18.356H97.937v-23.5c0-8.97,1.128-15.723,3.354-20.073,2.289-4.466,7.293-10.687,14.871-18.491l23.309-23.992.059-.059.053-.065c3.751-4.505,5.652-10.343,5.652-17.352s-2.018-12.966-6-17.7a20.115,20.115,0,0,0-16.083-7.3c-6.635,0-12.24,2.88-16.655,8.565-3.919,5.037-6.465,11.6-7.578,19.54H48.862c2.76-21.05,10.834-37.853,24.024-49.976C86.565,59.711,104,53.334,124.69,53.334m0-2.208q-32.054,0-53.3,19.536T46.37,124.475h54.5q1.364-12.676,7.369-20.394t14.912-7.712a17.925,17.925,0,0,1,14.395,6.513q5.479,6.516,5.484,16.281T137.887,135.1l-23.309,23.992q-11.658,12-15.253,19.025t-3.6,21.079V224.9h52.1V204.336q0-9.254,2.4-13.882t9.771-11.825q7.365-7.2,15.594-15.425,1.711-1.708,6.684-7.539t6.341-8.741q1.364-2.91,4.8-9.6,3.419-6.684,3.426-20.394,0-30.849-20.051-48.329t-52.1-17.479Z" transform="translate(-46.37 -51.126)" fill="#fff"/>
        <path id="Path_32490" data-name="Path 32490" d="M99,147.2a27.636,27.636,0,0,1,27.953,27.953A27.636,27.636,0,0,1,99,203.106a27.636,27.636,0,0,1-27.953-27.953A27.636,27.636,0,0,1,99,147.2m0-2.21A30.3,30.3,0,0,0,77.58,196.575,29.125,29.125,0,0,0,99,205.316a30.3,30.3,0,0,0,21.422-51.585A29.143,29.143,0,0,0,99,144.99Z" transform="translate(-22.91 46.878)" fill="#fff"/>
      </g>
    </g>
  </g>
</svg>
