<svg xmlns="http://www.w3.org/2000/svg" width="36.791" height="43.485" viewBox="0 0 36.791 43.485">
  <g id="thermometer-gun" transform="translate(-39.412)">
    <path id="Path_5312" data-name="Path 5312" d="M75.92.473A1.274,1.274,0,0,0,74.929,0H51.738a6.331,6.331,0,0,0-6.254,5.16L39.561,35.787a6.382,6.382,0,0,0,6.23,7.7h8.2a3.829,3.829,0,0,0,1.591-7.3l2.264-11.13h5.018a1.274,1.274,0,0,0,1.274-1.274v-5.35h7.4a1.274,1.274,0,0,0,1.246-1.007l3.4-15.882A1.274,1.274,0,0,0,75.92.473ZM53.088,37.9a1.274,1.274,0,0,0,.952.487,1.274,1.274,0,0,1-.051,2.547h-8.2a3.823,3.823,0,0,1-3.728-4.665L47.986,5.644a3.781,3.781,0,0,1,3.752-3.1H68.21L65.357,15.882H62.313a6.312,6.312,0,0,0-6.242,5.1l-3.23,15.88a1.274,1.274,0,0,0,.246,1.04Zm5.274-15.4.207-1.017a3.781,3.781,0,0,1,3.02-2.992v4.009ZM70.5,15.882H67.963L70.815,2.548h2.539Z" transform="translate(0)" fill="#1965ff" fill-rule="evenodd"/>
    <path id="Path_5313" data-name="Path 5313" d="M185.657,94.774a1.274,1.274,0,1,0-1.274,1.274A1.276,1.276,0,0,0,185.657,94.774Z" transform="translate(-131.499 -85.559)" fill="#1965ff" fill-rule="evenodd"/>
    <path id="Path_5314" data-name="Path 5314" d="M244.313,96.118a1.274,1.274,0,1,0-1.274-1.274A1.276,1.276,0,0,0,244.313,96.118Z" transform="translate(-186.333 -85.629)" fill="#1965ff" fill-rule="evenodd"/>
  </g>
</svg>
