<svg xmlns="http://www.w3.org/2000/svg" width="42.602" height="49.223" viewBox="0 0 42.602 49.223">
  <path id="shopping-bag" d="M42.594,47.6,38.852,11.979A1.465,1.465,0,0,0,37.4,10.666H30.364v-1.6a9.063,9.063,0,0,0-18.127,0v1.6H5.205a1.465,1.465,0,0,0-1.457,1.312L.007,47.6a1.465,1.465,0,0,0,1.457,1.618H41.136A1.465,1.465,0,0,0,42.594,47.6ZM15.167,9.063a6.133,6.133,0,0,1,12.267,0v1.6H15.167ZM3.091,46.293,6.525,13.6h5.712v3.228a1.465,1.465,0,1,0,2.93,0V13.6H27.434v3.228a1.465,1.465,0,1,0,2.93,0V13.6h5.712l3.434,32.7Zm0,0" transform="translate(0.001)" fill="#1965ff"/>
</svg>
