<svg xmlns="http://www.w3.org/2000/svg" width="39.987" height="53.316" viewBox="0 0 39.987 53.316">
  <g id="padlock-unlock" transform="translate(-54.818)">
    <path id="Path_31622" data-name="Path 31622" d="M93.833,27.63a3.213,3.213,0,0,0-2.361-.972H65.925V15.551a8.561,8.561,0,0,1,2.6-6.283,8.883,8.883,0,0,1,12.565,0,8.561,8.561,0,0,1,2.6,6.283,2.252,2.252,0,0,0,2.221,2.221h2.223a2.252,2.252,0,0,0,2.221-2.221A14.977,14.977,0,0,0,85.8,4.565a15.5,15.5,0,0,0-21.973,0,14.976,14.976,0,0,0-4.564,10.986V26.658H58.15a3.318,3.318,0,0,0-3.332,3.332V49.984a3.318,3.318,0,0,0,3.332,3.332H91.472A3.318,3.318,0,0,0,94.8,49.984V29.99A3.211,3.211,0,0,0,93.833,27.63Z" fill="#ef6a23"/>
  </g>
</svg>
