<svg xmlns="http://www.w3.org/2000/svg" width="48.074" height="47.981" viewBox="0 0 48.074 47.981">
  <g id="plane" transform="translate(0 -0.498)">
    <g id="Group_287" data-name="Group 287" transform="translate(0 0.498)">
      <path id="Path_6067" data-name="Path 6067" d="M47.126,1.446C45.984.3,44.011.191,41.417,1.121a13.82,13.82,0,0,0-4.549,2.606L29.68,10.914,6.02,7.2,0,13.218l19.671,7.7-6.316,6.316-8.964.525-4.3,4.3,9.728,4.694L7.1,39.482,9.09,41.476l2.722-2.722,4.7,9.724,4.3-4.3.525-8.964,6.422-6.422,7.7,19.667,6.02-6.02L37.763,18.786,44.845,11.7a13.818,13.818,0,0,0,2.606-4.549C48.381,4.562,48.268,2.587,47.126,1.446ZM5.043,12.164,7,10.207l20.213,3.175-5.365,5.365Zm33.426,29.3-1.957,1.957-6.581-16.8L35.3,21.254ZM44.8,6.2A11.458,11.458,0,0,1,42.851,9.71L18.58,33.981l-.525,8.964-.732.732-3.4-7.034,2.452-2.452L14.381,32.2l-2.448,2.448L4.9,31.248l.731-.731,8.964-.525L38.862,5.721a11.461,11.461,0,0,1,3.507-1.945c1.707-.612,2.612-.487,2.763-.336S45.408,4.5,44.8,6.2Z" transform="translate(0 -0.498)" fill="#1965ff"/>
    </g>
  </g>
</svg>
