<svg xmlns="http://www.w3.org/2000/svg" width="50.947" height="37.517" viewBox="0 0 50.947 37.517">
  <path id="rubber-gloves" d="M36.024,40.8h-.2c0-4.394-.021-23.625-.021-28.459a4.476,4.476,0,0,0-5.871-4.255V7.96a4.478,4.478,0,0,0-6.028-4.2,4.478,4.478,0,0,0-8.835-.033A4.476,4.476,0,0,0,9.137,7.96V18.068c-.164-.3-.34-.627-.531-.98-1.549-2.867-4.1-3.367-5.95-2.59A4.306,4.306,0,0,0,.2,19.76C.905,22.039,4.052,28.63,6.77,34.225l0,6.572h-.2a1.493,1.493,0,1,0,0,2.985h.222v5.671a1.493,1.493,0,0,0,2.985,0V43.786H32.84v5.669a1.493,1.493,0,1,0,2.985,0V43.782h.2a1.493,1.493,0,0,0,0-2.985ZM3.047,18.874a1.318,1.318,0,0,1,.767-1.625c.769-.324,1.558.135,2.165,1.258,1.976,3.655,2.437,4.42,3.38,5.944a1.493,1.493,0,0,0,2.762-.785V7.96a1.491,1.491,0,0,1,2.886-.53v7.894a1.493,1.493,0,0,0,2.985,0V4.478a1.493,1.493,0,1,1,2.985,0V15.324a1.493,1.493,0,1,0,2.985,0V7.959a1.493,1.493,0,0,1,2.985,0v7.363a1.493,1.493,0,0,0,2.985,0V11.808a1.491,1.491,0,0,1,2.886.531c0,4.835.02,24.066.021,28.458H9.757l0-6.916a1.493,1.493,0,0,0-.15-.652c-1.437-2.956-5.81-11.953-6.557-14.355Z" transform="translate(50.947) rotate(90)" fill="#1965ff"/>
</svg>
