<svg xmlns="http://www.w3.org/2000/svg" width="53.385" height="43.613" viewBox="0 0 53.385 43.613">
  <path id="XMLID_874_" d="M50.779,68.736V67.719a5.341,5.341,0,0,0-2.433-4.477V52.152a5.3,5.3,0,0,0-5.292-5.292H10.331a5.3,5.3,0,0,0-5.292,5.292V63.243a5.341,5.341,0,0,0-2.433,4.477v1.017A3.5,3.5,0,0,0,0,72.117v11.9A3.5,3.5,0,0,0,3.329,87.5v1.408a1.561,1.561,0,0,0,3.122,0v-1.4H46.934v1.4a1.561,1.561,0,0,0,3.122,0V87.5a3.5,3.5,0,0,0,3.329-3.491v-11.9A3.5,3.5,0,0,0,50.779,68.736ZM8.161,52.152a2.172,2.172,0,0,1,2.17-2.17H43.054a2.172,2.172,0,0,1,2.17,2.17V62.377H43.143V59.626a3.5,3.5,0,0,0-3.493-3.493h-8.4a3.5,3.5,0,0,0-3.493,3.493v2.751H25.627V59.626a3.5,3.5,0,0,0-3.493-3.493h-8.4a3.5,3.5,0,0,0-3.493,3.493v2.751H8.161Zm31.86,7.474v2.381a.371.371,0,0,1-.371.371h-8.4a.371.371,0,0,1-.371-.371V59.626a.371.371,0,0,1,.371-.371h8.4A.371.371,0,0,1,40.021,59.626Zm-17.516,0v2.381a.371.371,0,0,1-.371.371h-8.4a.371.371,0,0,1-.371-.371V59.626a.371.371,0,0,1,.371-.371h8.4A.371.371,0,0,1,22.5,59.626ZM5.728,67.719a2.223,2.223,0,0,1,2.22-2.22H45.436a2.223,2.223,0,0,1,2.22,2.22v.9H5.728ZM50.263,84.013a.374.374,0,0,1-.373.373H3.5a.374.374,0,0,1-.373-.373v-11.9a.374.374,0,0,1,.373-.373H49.889a.374.374,0,0,1,.373.373v11.9Z" transform="translate(0 -46.86)" fill="#1965ff"/>
</svg>
