<svg xmlns="http://www.w3.org/2000/svg" width="29.896" height="30.564" viewBox="0 0 29.896 30.564">
  <path id="infection" d="M15.885.75a1.019,1.019,0,0,1,.911.563l.539,1.079A13.458,13.458,0,0,1,21.476,3.52l1.112-.836a1.019,1.019,0,0,1,1.631.813l0,1.689a13.612,13.612,0,0,1,2.331,2.331l1.592,0a1.019,1.019,0,0,1,.813,1.631l-.776,1.031a13.459,13.459,0,0,1,1.171,4.273l.976.488a1.019,1.019,0,0,1,0,1.822l-.976.488a13.46,13.46,0,0,1-1.171,4.273l.776,1.031a1.019,1.019,0,0,1-.813,1.631l-1.592,0a13.618,13.618,0,0,1-2.331,2.331l0,2.045a1.019,1.019,0,0,1-1.631.813L21.178,28.32a13.456,13.456,0,0,1-3.656.976L16.8,30.751a1.019,1.019,0,0,1-1.823,0L14.245,29.3a13.46,13.46,0,0,1-3.655-.976L9.181,29.38a1.019,1.019,0,0,1-1.631-.813l0-2.045A13.616,13.616,0,0,1,5.357,24.37l-1.615,0a1.019,1.019,0,0,1-.813-1.631l.754-1A13.455,13.455,0,0,1,2.43,17.379l-.871-.435a1.019,1.019,0,0,1,0-1.822l.834-.417a13.462,13.462,0,0,1,1.188-4.51L2.93,9.329A1.019,1.019,0,0,1,3.743,7.7l1.336,0A13.614,13.614,0,0,1,7.547,5.186l0-1.69a1.019,1.019,0,0,1,1.631-.813l1.112.837a13.457,13.457,0,0,1,4.141-1.129l.539-1.079A1.019,1.019,0,0,1,15.885.75ZM9.491,19.506a1.7,1.7,0,1,1,1.7,1.7A1.7,1.7,0,0,1,9.491,19.506Zm5.8-9.325a2.377,2.377,0,1,0,2.377,2.377,2.377,2.377,0,0,0-2.377-2.377Zm.99,8.645a3.056,3.056,0,1,1,3.056,3.056A3.057,3.057,0,0,1,16.284,18.827Z" transform="translate(-0.996 -0.75)" fill="#ef2923" fill-rule="evenodd"/>
</svg>
