<svg xmlns="http://www.w3.org/2000/svg" width="53.501" height="53.499" viewBox="0 0 53.501 53.499">
  <g id="locked" transform="translate(0 -0.001)">
    <path id="Path_6792" data-name="Path 6792" d="M31.162,32.6H18.9A3.905,3.905,0,0,1,15,28.7V20.9A3.905,3.905,0,0,1,18.9,17H31.162a3.905,3.905,0,0,1,3.9,3.9v7.8A3.905,3.905,0,0,1,31.162,32.6ZM18.9,20.344a.558.558,0,0,0-.557.557v7.8a.558.558,0,0,0,.557.557H31.162a.558.558,0,0,0,.557-.557V20.9a.558.558,0,0,0-.557-.557Z" transform="translate(18.438 20.895)" fill="#1965ff"/>
    <path id="Path_6793" data-name="Path 6793" d="M26.474,25.261h-7.8A1.673,1.673,0,0,1,17,23.589V18.573a5.573,5.573,0,0,1,11.146,0v5.016A1.673,1.673,0,0,1,26.474,25.261Zm-6.13-3.344H24.8V18.573a2.229,2.229,0,1,0-4.458,0Z" transform="translate(20.896 15.979)" fill="#1965ff"/>
    <path id="Path_6794" data-name="Path 6794" d="M18.948,46.812a1.531,1.531,0,0,1-.319-.031C18.442,46.745,0,42.936,0,22.135V8.359A1.669,1.669,0,0,1,1.068,6.8L18.344.113a1.679,1.679,0,0,1,1.206,0L36.826,6.8A1.668,1.668,0,0,1,37.9,8.359V22.135a29.431,29.431,0,0,1-.214,3.634,1.671,1.671,0,1,1-3.317-.4,26.433,26.433,0,0,0,.187-3.232V9.5l-15.6-6.039L3.344,9.5V22.135c0,16.842,13.259,20.736,15.593,21.291a22.011,22.011,0,0,0,7.417-3.576,1.672,1.672,0,1,1,2,2.684,24.511,24.511,0,0,1-9.084,4.244,1.377,1.377,0,0,1-.317.033Z" transform="translate(0 0)" fill="#1965ff"/>
  </g>
</svg>
