<svg xmlns="http://www.w3.org/2000/svg" width="55.478" height="40.422" viewBox="0 0 55.478 40.422">
  <g id="protection-mask" transform="translate(0)">
    <path id="Path_5139" data-name="Path 5139" d="M50.6,78.76H48.5a5.248,5.248,0,0,0-3.482-4.327c-.03-.011-.06-.021-.091-.03L28.3,69.538a1.624,1.624,0,0,0-.913,0L10.766,74.4l-.091.03A5.248,5.248,0,0,0,7.193,78.76H4.876A4.882,4.882,0,0,0,0,83.636V97.831a4.881,4.881,0,0,0,4.876,4.876H11.4q.656.8,1.411,1.555a18.657,18.657,0,0,0,13.616,5.634h.05l2.817-.006a19.262,19.262,0,0,0,14.955-7.182H50.6a4.881,4.881,0,0,0,4.876-4.876V83.636A4.882,4.882,0,0,0,50.6,78.76ZM4.876,99.456A1.627,1.627,0,0,1,3.251,97.83V83.636a1.627,1.627,0,0,1,1.625-1.625H7.151v8.6a18.855,18.855,0,0,0,2.1,8.848Zm24.416,7.182-2.817.006h-.042a15.514,15.514,0,0,1-11.321-4.684A15.516,15.516,0,0,1,10.4,90.608V79.432a2.012,2.012,0,0,1,1.329-1.924l16.116-4.716,16.116,4.716a2.012,2.012,0,0,1,1.329,1.924V90.6A16.062,16.062,0,0,1,29.292,106.638ZM52.227,97.83A1.627,1.627,0,0,1,50.6,99.456H46.384A19.155,19.155,0,0,0,48.543,90.6v-8.59H50.6a1.627,1.627,0,0,1,1.625,1.625Z" transform="translate(0 -69.473)" fill="#1965ff"/>
    <path id="Path_5140" data-name="Path 5140" d="M157.462,193.185H133.623a1.625,1.625,0,1,0,0,3.251h23.838a1.625,1.625,0,1,0,0-3.251Z" transform="translate(-117.696 -179.78)" fill="#1965ff"/>
    <path id="Path_5141" data-name="Path 5141" d="M171.561,253.186H151.623a1.625,1.625,0,1,0,0,3.251h19.938a1.625,1.625,0,0,0,0-3.251Z" transform="translate(-133.745 -233.28)" fill="#1965ff"/>
    <path id="Path_5142" data-name="Path 5142" d="M194.67,313.186H181.125a1.625,1.625,0,1,0,0,3.251H194.67a1.625,1.625,0,1,0,0-3.251Z" transform="translate(-160.051 -286.779)" fill="#1965ff"/>
  </g>
</svg>
