<svg xmlns="http://www.w3.org/2000/svg" width="51.714" height="52.871" viewBox="0 0 51.714 52.871">
  <path id="infection" d="M26.751.75a1.762,1.762,0,0,1,1.576.974L29.26,3.59a23.279,23.279,0,0,1,7.163,1.952L38.346,4.1A1.762,1.762,0,0,1,41.168,5.5l0,2.922a23.547,23.547,0,0,1,4.033,4.033l2.754,0a1.762,1.762,0,0,1,1.406,2.822l-1.342,1.784a23.281,23.281,0,0,1,2.025,7.392l1.688.844a1.762,1.762,0,0,1,0,3.153l-1.688.844a23.284,23.284,0,0,1-2.025,7.392l1.342,1.784A1.762,1.762,0,0,1,47.959,41.3l-2.753,0a23.557,23.557,0,0,1-4.033,4.033l-.005,3.537a1.762,1.762,0,0,1-2.822,1.406l-2.438-1.835a23.277,23.277,0,0,1-6.323,1.688l-1.259,2.517a1.762,1.762,0,0,1-3.153,0l-1.259-2.518a23.283,23.283,0,0,1-6.322-1.688l-2.439,1.835a1.762,1.762,0,0,1-2.822-1.406l-.005-3.538A23.552,23.552,0,0,1,8.54,41.608l-2.793,0a1.762,1.762,0,0,1-1.406-2.822l1.305-1.735a23.276,23.276,0,0,1-2.17-7.531L1.97,28.762a1.762,1.762,0,0,1,0-3.153l1.442-.721a23.287,23.287,0,0,1,2.055-7.8l-1.127-1.5a1.762,1.762,0,0,1,1.406-2.822l2.312,0a23.549,23.549,0,0,1,4.269-4.34l0-2.923A1.762,1.762,0,0,1,15.154,4.1l1.923,1.447A23.278,23.278,0,0,1,24.241,3.59l.933-1.866A1.762,1.762,0,0,1,26.751.75ZM15.692,33.194a2.937,2.937,0,1,1,2.937,2.937A2.937,2.937,0,0,1,15.692,33.194Zm10.037-16.13a4.112,4.112,0,1,0,4.112,4.112,4.112,4.112,0,0,0-4.112-4.112Zm1.713,14.955a5.287,5.287,0,1,1,5.287,5.287A5.287,5.287,0,0,1,27.441,32.019Z" transform="translate(-0.996 -0.75)" fill="#ef2923" fill-rule="evenodd"/>
</svg>
