<svg xmlns="http://www.w3.org/2000/svg" width="67.563" height="49.905" viewBox="0 0 67.563 49.905">
  <g id="medical-mask" transform="translate(0 -66.907)">
    <g id="Group_2539" data-name="Group 2539" transform="translate(0 76.699)">
      <path id="Path_31623" data-name="Path 31623" d="M442.583,141.114a5.851,5.851,0,0,1,.24,1.654V145.1a3.474,3.474,0,0,1,3.007,3.437v6.739a11.663,11.663,0,0,1-3.527,8.363,26.6,26.6,0,0,1-1.971,6.013,15.679,15.679,0,0,0,9.457-14.376v-6.739A7.435,7.435,0,0,0,442.583,141.114Z" transform="translate(-382.226 -141.114)" fill="#fff302"/>
      <path id="Path_31624" data-name="Path 31624" d="M7.486,163.639a11.662,11.662,0,0,1-3.528-8.363v-6.739A3.474,3.474,0,0,1,6.965,145.1v-2.331a5.849,5.849,0,0,1,.24-1.654A7.435,7.435,0,0,0,0,148.537v6.739a15.679,15.679,0,0,0,9.457,14.375,26.593,26.593,0,0,1-1.971-6.013Z" transform="translate(0 -141.115)" fill="#fff302"/>
    </g>
    <g id="Group_2540" data-name="Group 2540" transform="translate(10.924 66.907)">
      <path id="Path_31625" data-name="Path 31625" d="M85.239,79.831a24.874,24.874,0,0,0,16.142-5.853q.19-.162.378-.328a5.87,5.87,0,0,1,7.76,0q.189.166.378.328a24.874,24.874,0,0,0,16.143,5.853H128.5v-2.8a1.979,1.979,0,0,0-1.556-1.933c-3.391-.744-11.417-2.753-14.8-5.739a9.829,9.829,0,0,0-13,0c-3.386,2.986-11.412,4.995-14.8,5.739a1.979,1.979,0,0,0-1.556,1.933v2.8h2.456Z" transform="translate(-82.783 -66.907)" fill="#fff302"/>
      <path id="Path_31626" data-name="Path 31626" d="M126.042,144.553a28.828,28.828,0,0,1-18.71-6.8q-.216-.184-.43-.373a1.912,1.912,0,0,0-2.523,0q-.214.188-.43.373a28.827,28.827,0,0,1-18.71,6.8H82.784v10.165a22.857,22.857,0,1,0,45.714,0V144.553ZM119.375,164.5a42.375,42.375,0,0,1-27.468,0,1.979,1.979,0,1,1,1.4-3.7,38.458,38.458,0,0,0,24.668,0,1.979,1.979,0,1,1,1.4,3.7Zm1.826-9.209a50.512,50.512,0,0,1-15.56,2.259,50.516,50.516,0,0,1-15.56-2.259,1.979,1.979,0,0,1,1.24-3.759,50.806,50.806,0,0,0,28.64,0,1.979,1.979,0,0,1,1.24,3.759Z" transform="translate(-82.784 -127.67)" fill="#fff302"/>
    </g>
  </g>
</svg>
