<svg id="team-leader" xmlns="http://www.w3.org/2000/svg" width="45.824" height="45.824" viewBox="0 0 45.824 45.824">
  <path id="Path_6177" data-name="Path 6177" d="M41.74,65.37a5.37,5.37,0,1,0-5.37,5.37A5.376,5.376,0,0,0,41.74,65.37Zm-5.37,2.685a2.685,2.685,0,1,1,2.685-2.685A2.688,2.688,0,0,1,36.37,68.055Z" transform="translate(-28.225 -54.63)" fill="#1965ff"/>
  <path id="Path_6178" data-name="Path 6178" d="M371.74,65.37a5.37,5.37,0,1,0-5.37,5.37A5.376,5.376,0,0,0,371.74,65.37Zm-5.37,2.685a2.685,2.685,0,1,1,2.685-2.685A2.688,2.688,0,0,1,366.37,68.055Z" transform="translate(-328.69 -54.63)" fill="#1965ff"/>
  <path id="Path_6179" data-name="Path 6179" d="M37.68,152.685a8.041,8.041,0,0,0-6.181,2.9,9.4,9.4,0,0,0-17.174,0,8.041,8.041,0,0,0-6.181-2.9A8.127,8.127,0,0,0,0,160.74v6.713A1.343,1.343,0,0,0,1.342,168.8H2.811l1.223,12.393A1.342,1.342,0,0,0,5.37,182.4h5.46a1.342,1.342,0,0,0,1.336-1.211L13.389,168.8h4.483l1.017,12.372a1.342,1.342,0,0,0,1.338,1.233H25.6a1.342,1.342,0,0,0,1.338-1.233L27.953,168.8h4.483l1.223,12.393a1.343,1.343,0,0,0,1.336,1.211h5.46a1.343,1.343,0,0,0,1.336-1.211L43.013,168.8h1.468a1.343,1.343,0,0,0,1.343-1.342V160.74A8.128,8.128,0,0,0,37.68,152.685ZM12.172,166.11a1.342,1.342,0,0,0-1.336,1.211L9.613,179.714H6.587L5.363,167.321a1.342,1.342,0,0,0-1.336-1.211H2.685v-5.37a5.415,5.415,0,0,1,10.83,0v5.37Zm14.544,0a1.342,1.342,0,0,0-1.338,1.233L24.36,179.714h-2.9l-1.017-12.372a1.343,1.343,0,0,0-1.338-1.233H16.2V159.4a6.724,6.724,0,0,1,5.37-6.577V159.4a1.343,1.343,0,0,0,2.685,0V152.82a6.724,6.724,0,0,1,5.37,6.577v6.713Zm16.423,0H41.8a1.343,1.343,0,0,0-1.336,1.211l-1.223,12.393H36.211l-1.223-12.393a1.343,1.343,0,0,0-1.336-1.211H32.31v-5.37a5.415,5.415,0,0,1,10.83,0Z" transform="translate(0 -136.575)" fill="#1965ff"/>
  <path id="Path_6180" data-name="Path 6180" d="M194.425,6.713a6.713,6.713,0,1,0-6.713,6.713A6.72,6.72,0,0,0,194.425,6.713Zm-6.713,4.028a4.028,4.028,0,1,1,4.028-4.028A4.032,4.032,0,0,1,187.713,10.74Z" transform="translate(-164.8)" fill="#1965ff"/>
</svg>
