<svg xmlns="http://www.w3.org/2000/svg" width="47.354" height="47.354" viewBox="0 0 47.354 47.354">
  <g id="bus" transform="translate(0.001)">
    <ellipse id="Ellipse_508" data-name="Ellipse 508" cx="1.282" cy="1.495" rx="1.282" ry="1.495" transform="translate(35.455 32.402)" fill="#1965ff"/>
    <ellipse id="Ellipse_509" data-name="Ellipse 509" cx="1.282" cy="1.495" rx="1.282" ry="1.495" transform="translate(13.242 32.402)" fill="#1965ff"/>
    <path id="Path_6068" data-name="Path 6068" d="M213.387,354.775h9.249a1.387,1.387,0,1,0,0-2.775h-9.249a1.387,1.387,0,1,0,0,2.775Z" transform="translate(-192.393 -319.444)" fill="#1965ff"/>
    <path id="Path_6069" data-name="Path 6069" d="M47.206,19.449a1.387,1.387,0,0,0-1.861-.62l-1.691.846V11.561a6.018,6.018,0,0,0-6.012-6.012H35.33V3.237A3.241,3.241,0,0,0,32.092,0H19.144a3.241,3.241,0,0,0-3.237,3.237V5.549H13.6a6.018,6.018,0,0,0-6.012,6.012v8.114l-1.692-.846a1.387,1.387,0,1,0-1.241,2.482l2.933,1.466V39.713L.568,44.847a1.387,1.387,0,1,0,1.638,2.239L9.424,41.8h.934v2.312A3.241,3.241,0,0,0,13.6,47.353H16.37a3.241,3.241,0,0,0,3.237-3.237V41.8H31.63v2.312a3.241,3.241,0,0,0,3.237,3.237h2.775a3.241,3.241,0,0,0,3.237-3.237V41.8h1.387a1.387,1.387,0,0,0,1.387-1.387V22.777l2.932-1.466a1.387,1.387,0,0,0,.62-1.861ZM18.682,3.237a.463.463,0,0,1,.462-.462H32.092a.463.463,0,0,1,.462.462V5.549H18.682ZM13.6,8.324H37.642a3.242,3.242,0,0,1,3.2,2.775H10.392A3.242,3.242,0,0,1,13.6,8.324Zm-3.237,5.549H24.231V26.081H10.358Zm6.474,30.243a.463.463,0,0,1-.462.462H13.6a.463.463,0,0,1-.462-.462V41.8h3.7Zm21.272,0a.463.463,0,0,1-.462.462H34.867a.463.463,0,0,1-.462-.462V41.8h3.7Zm2.775-5.087H10.358V28.856H40.879Zm0-12.948H27.006V13.873H40.879Z" transform="translate(0)" fill="#1965ff"/>
  </g>
</svg>
