<svg id="verification" xmlns="http://www.w3.org/2000/svg" width="53.382" height="53.382" viewBox="0 0 53.382 53.382">
  <path id="Path_6795" data-name="Path 6795" d="M51.715,22.32a8.58,8.58,0,0,1-1.063-2.049,8.956,8.956,0,0,1-.119-2.413,8.23,8.23,0,0,0-.724-4.516,8.278,8.278,0,0,0-3.585-2.906,8.771,8.771,0,0,1-2-1.28,8.777,8.777,0,0,1-1.28-2A8.276,8.276,0,0,0,40.04,3.573a8.226,8.226,0,0,0-4.516-.723,8.964,8.964,0,0,1-2.413-.119,8.581,8.581,0,0,1-2.049-1.063A8.333,8.333,0,0,0,26.691,0,8.333,8.333,0,0,0,22.32,1.668a8.575,8.575,0,0,1-2.049,1.063,8.964,8.964,0,0,1-2.413.119,8.228,8.228,0,0,0-4.516.723,8.278,8.278,0,0,0-2.906,3.585,8.774,8.774,0,0,1-1.28,2,8.775,8.775,0,0,1-2,1.28,8.278,8.278,0,0,0-3.585,2.906,8.231,8.231,0,0,0-.724,4.516,8.952,8.952,0,0,1-.119,2.413A8.574,8.574,0,0,1,1.667,22.32,8.334,8.334,0,0,0,0,26.691a8.333,8.333,0,0,0,1.668,4.371,8.58,8.58,0,0,1,1.063,2.049,8.956,8.956,0,0,1,.119,2.413,8.23,8.23,0,0,0,.723,4.516,8.278,8.278,0,0,0,3.585,2.906,8.771,8.771,0,0,1,2,1.28,8.778,8.778,0,0,1,1.28,2,8.276,8.276,0,0,0,2.907,3.585,8.226,8.226,0,0,0,4.516.723,8.959,8.959,0,0,1,2.413.119,8.58,8.58,0,0,1,2.049,1.063,8.333,8.333,0,0,0,4.371,1.668,8.333,8.333,0,0,0,4.371-1.668,8.574,8.574,0,0,1,2.049-1.063,8.955,8.955,0,0,1,2.413-.119,8.225,8.225,0,0,0,4.516-.723,8.278,8.278,0,0,0,2.907-3.585,8.774,8.774,0,0,1,1.28-2,8.775,8.775,0,0,1,2-1.28,8.278,8.278,0,0,0,3.585-2.907,8.231,8.231,0,0,0,.724-4.516,8.952,8.952,0,0,1,.119-2.413,8.574,8.574,0,0,1,1.063-2.049,8.334,8.334,0,0,0,1.667-4.371,8.333,8.333,0,0,0-1.668-4.371Zm-2.672,7.07A10.878,10.878,0,0,0,47.606,32.3a11.311,11.311,0,0,0-.224,3.329,5.928,5.928,0,0,1-.3,2.835,5.95,5.95,0,0,1-2.337,1.7A11.1,11.1,0,0,0,42,42a11.1,11.1,0,0,0-1.835,2.745,5.949,5.949,0,0,1-1.7,2.337,5.927,5.927,0,0,1-2.835.3,11.307,11.307,0,0,0-3.329.224,10.88,10.88,0,0,0-2.907,1.436,5.964,5.964,0,0,1-2.7,1.188,5.964,5.964,0,0,1-2.7-1.188,10.88,10.88,0,0,0-2.907-1.436,8.606,8.606,0,0,0-2.241-.248c-.365,0-.729.012-1.088.024a5.928,5.928,0,0,1-2.835-.3,5.949,5.949,0,0,1-1.7-2.337A11.1,11.1,0,0,0,11.384,42a11.1,11.1,0,0,0-2.745-1.835,5.951,5.951,0,0,1-2.337-1.7A5.929,5.929,0,0,1,6,35.627,11.311,11.311,0,0,0,5.776,32.3,10.881,10.881,0,0,0,4.34,29.39a5.964,5.964,0,0,1-1.188-2.7,5.964,5.964,0,0,1,1.188-2.7,10.877,10.877,0,0,0,1.436-2.907A11.311,11.311,0,0,0,6,17.756a5.928,5.928,0,0,1,.3-2.835,5.95,5.95,0,0,1,2.337-1.7,11.1,11.1,0,0,0,2.745-1.835,11.1,11.1,0,0,0,1.835-2.745,5.949,5.949,0,0,1,1.7-2.337A5.93,5.93,0,0,1,17.756,6a11.3,11.3,0,0,0,3.329-.224A10.88,10.88,0,0,0,23.993,4.34a5.964,5.964,0,0,1,2.7-1.188,5.964,5.964,0,0,1,2.7,1.188A10.88,10.88,0,0,0,32.3,5.776,11.307,11.307,0,0,0,35.626,6a5.931,5.931,0,0,1,2.835.3,5.949,5.949,0,0,1,1.7,2.337A11.1,11.1,0,0,0,42,11.384a11.1,11.1,0,0,0,2.745,1.835,5.951,5.951,0,0,1,2.337,1.7,5.929,5.929,0,0,1,.3,2.835,11.311,11.311,0,0,0,.224,3.329,10.881,10.881,0,0,0,1.436,2.907,5.963,5.963,0,0,1,1.188,2.7,5.964,5.964,0,0,1-1.188,2.7Z" transform="translate(0)" fill="#1965ff"/>
  <path id="Path_6796" data-name="Path 6796" d="M169.984,201.123l-4.361-4.361-2.229,2.229,6.545,6.545,12.474-11.975-2.183-2.274Z" transform="translate(-146.224 -171.186)" fill="#1965ff"/>
  <path id="Path_6797" data-name="Path 6797" d="M97.39,79a18.39,18.39,0,1,0,18.39,18.39A18.41,18.41,0,0,0,97.39,79Zm0,33.627A15.237,15.237,0,1,1,112.627,97.39,15.254,15.254,0,0,1,97.39,112.627Z" transform="translate(-70.698 -70.698)" fill="#1965ff"/>
</svg>
