<svg xmlns="http://www.w3.org/2000/svg" width="21.109" height="28.146" viewBox="0 0 21.109 28.146">
  <g id="padlock-unlock" transform="translate(-54.818)">
    <path id="Path_31622" data-name="Path 31622" d="M75.415,14.586a1.7,1.7,0,0,0-1.246-.513H60.682V8.21a4.52,4.52,0,0,1,1.374-3.317,4.69,4.69,0,0,1,6.633,0A4.519,4.519,0,0,1,70.064,8.21a1.189,1.189,0,0,0,1.172,1.173H72.41A1.189,1.189,0,0,0,73.582,8.21a7.907,7.907,0,0,0-2.41-5.8,8.185,8.185,0,0,0-11.6,0,7.906,7.906,0,0,0-2.41,5.8v5.864h-.586a1.752,1.752,0,0,0-1.759,1.759V26.387a1.752,1.752,0,0,0,1.759,1.759H74.168a1.752,1.752,0,0,0,1.759-1.759V15.832A1.7,1.7,0,0,0,75.415,14.586Z" transform="translate(0)" fill="#ef6a23"/>
  </g>
</svg>
