<svg xmlns="http://www.w3.org/2000/svg" width="55.652" height="50.232" viewBox="0 0 55.652 50.232">
  <g id="cardiogram" transform="translate(0 -24.925)">
    <path id="Path_6788" data-name="Path 6788" d="M55.649,40.9C55.4,28.252,39.964,18.931,27.826,29.544,15.7,18.938.257,28.245,0,40.9-.09,45.534,1.875,50,5.684,53.805L26.676,74.683a1.632,1.632,0,0,0,2.3,0L49.968,53.805C53.778,50,55.742,45.534,55.649,40.9ZM27.826,71.226,9.916,53.413h5.731a1.631,1.631,0,0,0,1.4-.792L18.3,50.535l4.673,7.341a1.632,1.632,0,0,0,2.85-.177l6.449-13.611,4.56,8.467a1.631,1.631,0,0,0,1.436.858h7.471ZM48.892,50.151H39.24L33.612,39.7a1.633,1.633,0,0,0-2.91.075L24.136,53.634l-4.5-7.076a1.632,1.632,0,0,0-2.775.036l-2.135,3.557H6.761a13.877,13.877,0,0,1-3.5-9.188c.2-10.169,13.166-18.272,23.408-8.033a1.632,1.632,0,0,0,2.307,0c13.076-13.073,31.054,3.827,19.912,17.221Z" transform="translate(0 0)" fill="#1965ff"/>
  </g>
</svg>
