<svg xmlns="http://www.w3.org/2000/svg" width="25.887" height="28.994" viewBox="0 0 25.887 28.994">
  <path id="secure" d="M37.832,4.058a.948.948,0,0,0-.685-.782L25.494.035a.947.947,0,0,0-.508,0L13.333,3.276a.948.948,0,0,0-.685.782c-.068.486-1.61,11.97,2.345,17.682a18.605,18.605,0,0,0,10.024,7.228.95.95,0,0,0,.445,0,18.6,18.6,0,0,0,10.024-7.228C39.442,16.028,37.9,4.545,37.832,4.058Zm-5.077,6.7-7.949,7.949a.947.947,0,0,1-1.34,0L18.552,13.8a.947.947,0,0,1,0-1.34l.976-.976a.948.948,0,0,1,1.34,0l3.269,3.269,6.3-6.3a.947.947,0,0,1,1.34,0l.976.976A.948.948,0,0,1,32.755,10.763Z" transform="translate(-12.297 0)" fill="#009f46"/>
</svg>
