<svg xmlns="http://www.w3.org/2000/svg" width="51.516" height="46.499" viewBox="0 0 51.516 46.499">
  <g id="cardiogram" transform="translate(0 -24.925)">
    <path id="Path_6788" data-name="Path 6788" d="M51.513,39.711C51.279,28,36.994,19.377,25.758,29.2,14.53,19.383.237,28,0,39.711-.083,44,1.736,48.134,5.262,51.659L24.693,70.985a1.51,1.51,0,0,0,2.13,0L46.255,51.659C49.781,48.134,51.6,44,51.513,39.711ZM25.758,67.785,9.179,51.3h5.3a1.51,1.51,0,0,0,1.295-.733l1.159-1.931,4.326,6.8a1.511,1.511,0,0,0,2.639-.164l5.97-12.6L34.093,50.5a1.51,1.51,0,0,0,1.329.794h6.915Zm19.5-19.509H36.324L31.114,38.6a1.511,1.511,0,0,0-2.694.069L22.343,51.5l-4.169-6.55a1.51,1.51,0,0,0-2.569.034l-1.976,3.293H6.258a12.846,12.846,0,0,1-3.236-8.505c.189-9.413,12.188-16.914,21.668-7.436a1.511,1.511,0,0,0,2.135,0c12.1-12.1,28.746,3.542,18.433,15.941Z" transform="translate(0 0)" fill="#1965ff"/>
  </g>
</svg>
