<svg xmlns="http://www.w3.org/2000/svg" width="195.999" height="37.4" viewBox="0 0 195.999 37.4">
  <g id="Group_783" data-name="Group 783" transform="translate(-52.266 -219.483)">
    <rect id="Rectangle_3" data-name="Rectangle 3" width="82.584" height="25.387" transform="translate(52.266 231.496)" fill="#fff"/>
    <g id="Group_2" data-name="Group 2" transform="translate(60.507 235.794)">
      <path id="Path_4" data-name="Path 4" d="M83.827,288.672v-.785h3.736l3.821,9.637h.255l3.821-9.637h3.63v.785l-5.434,13.012H89.367Z" transform="translate(-83.827 -286.337)" fill="#1a1818"/>
      <path id="Path_5" data-name="Path 5" d="M150.284,281.952a1.8,1.8,0,1,1-1.825,1.8A1.683,1.683,0,0,1,150.284,281.952Zm-1.783,4.733h3.566V297.3H148.5Z" transform="translate(-131.583 -281.952)" fill="#1a1818"/>
      <path id="Path_6" data-name="Path 6" d="M181.306,303.308h-3.693a1.87,1.87,0,0,0-1.825-1.21c-.849,0-1.465.255-1.465.807,0,1.655,7.111-.021,7.111,3.948,0,1.953-2.038,3.375-5.349,3.375-2.7,0-5.137-1.316-5.837-3.481v-.658h3.693a2.115,2.115,0,0,0,2.037,1.273c1.041,0,1.614-.382,1.614-.828,0-1.295-7.026.106-7.026-3.927,0-1.91,2.123-3.5,5.179-3.5,2.972,0,4.925,1.55,5.561,3.545Z" transform="translate(-147.682 -294.626)" fill="#1a1818"/>
      <path id="Path_7" data-name="Path 7" d="M223.128,281.952a1.8,1.8,0,1,1-1.825,1.8A1.683,1.683,0,0,1,223.128,281.952Zm-1.783,4.733h3.566V297.3h-3.566Z" transform="translate(-185.406 -281.952)" fill="#1a1818"/>
      <path id="Path_8" data-name="Path 8" d="M247.766,291.092h2.165V294.4h-2.165v2.547c0,1,.467,1.571,1.4,1.571.106,0,.551-.043.658-.064v3.312a9.153,9.153,0,0,1-1.741.169c-2.887,0-3.884-2.186-3.884-4.945V294.4h-1.274v-3.312H244.2v-2.144l3.566-1.061Z" transform="translate(-201.383 -286.337)" fill="#1a1818"/>
    </g>
    <rect id="Rectangle_4" data-name="Rectangle 4" width="114.862" height="25.387" transform="translate(117.904 231.496)" fill="#fff302"/>
    <g id="Group_3" data-name="Group 3" transform="translate(124.85 237.344)">
      <path id="Path_9" data-name="Path 9" d="M330.246,295.189v-7.3h3.609v7.6c0,2.017,1,3.015,3.057,3.1,2.059-.085,3.057-1.082,3.057-3.1v-7.6h3.609v7.3c0,4.521-2.441,6.75-6.665,6.75S330.246,299.71,330.246,295.189Z" transform="translate(-330.246 -287.887)" fill="#1a1818"/>
      <path id="Path_10" data-name="Path 10" d="M402.131,293.512v.383l5.561,7v.785H403.68l-4.224-5.5-1.783,1.762v3.736h-3.609v-13.8h3.609v5.689l5.583-5.689h3.736v.785Z" transform="translate(-377.4 -287.887)" fill="#1a1818"/>
      <path id="Path_11" data-name="Path 11" d="M454.389,287.887h7.854c2.844,0,4.946,1.656,4.946,4.309a4.113,4.113,0,0,1-2.823,3.99v.127l3.375,4.585v.785h-3.969l-3.311-4.776H458v4.776h-3.609ZM458,291.241v2.314h4.245c.807,0,1.337-.425,1.337-1.168,0-.722-.53-1.146-1.337-1.146Z" transform="translate(-421.974 -287.887)" fill="#1a1818"/>
      <path id="Path_12" data-name="Path 12" d="M515.377,287.887h4.288l5.646,13.012v.785h-3.736l-.913-2.25h-6.283l-.913,2.25h-3.629V300.9Zm.275,8.406h3.736l-1.719-4.245h-.319Z" transform="translate(-462.944 -287.887)" fill="#1a1818"/>
      <path id="Path_13" data-name="Path 13" d="M577.071,287.887h3.609v13.8h-3.609Z" transform="translate(-512.622 -287.887)" fill="#1a1818"/>
      <path id="Path_14" data-name="Path 14" d="M608.8,292.366h-.235v9.319h-3.608v-13.8h5.116l5.752,9.318h.234v-9.318h3.609v13.8h-5.1Z" transform="translate(-533.225 -287.887)" fill="#1a1818"/>
      <path id="Path_15" data-name="Path 15" d="M675.116,287.887h11.356v3.142h-7.747v1.91h7.366v3.142h-7.366v2.462h7.79v3.142h-11.4Z" transform="translate(-585.066 -287.887)" fill="#1a1818"/>
    </g>
    <g id="now" transform="translate(222.879 219.483)">
      <path id="Path_16" data-name="Path 16" d="M731.061,232.176a12.693,12.693,0,1,0-12.694,12.694,12.693,12.693,0,0,0,12.694-12.694" transform="translate(-705.674 -219.483)" fill="#006eff"/>
      <path id="Path_17" data-name="Path 17" d="M720.485,260.691h-.079v3.186h-1.235v-4.718h1.75l1.966,3.186h.08v-3.186H724.2v4.718h-1.741Z" transform="translate(-715.647 -248.799)" fill="#fff"/>
      <path id="Path_18" data-name="Path 18" d="M745.948,260.078a2.219,2.219,0,0,0-.545-.777,2.431,2.431,0,0,0-.827-.493,3.188,3.188,0,0,0-2.078,0,2.445,2.445,0,0,0-.824.493,2.242,2.242,0,0,0-.544.777,2.764,2.764,0,0,0,0,2.046,2.273,2.273,0,0,0,.544.78,2.434,2.434,0,0,0,.824.5,3.188,3.188,0,0,0,2.078,0,2.42,2.42,0,0,0,.827-.5,2.249,2.249,0,0,0,.545-.78,2.757,2.757,0,0,0,0-2.046m-1.425,2a1.563,1.563,0,0,1-1.967,0,1.483,1.483,0,0,1,0-1.953,1.564,1.564,0,0,1,1.967,0,1.484,1.484,0,0,1,0,1.953" transform="translate(-731.726 -248.411)" fill="#fff"/>
      <path id="Path_19" data-name="Path 19" d="M761.444,259.428v-.268h1.248l.784,2.91h.08l.892-2.91h1.329l.892,2.91h.079l.785-2.91h1.212v.268l-1.284,4.448h-1.43l-.893-2.78h-.108l-.863,2.78h-1.4Z" transform="translate(-746.882 -248.799)" fill="#fff"/>
    </g>
  </g>
</svg>
