<svg id="Group_526" data-name="Group 526" xmlns="http://www.w3.org/2000/svg" width="67.729" height="22.411" viewBox="0 0 67.729 22.411">
  <g id="Group_523" data-name="Group 523" transform="translate(10.288)">
    <g id="Group_521" data-name="Group 521">
      <path id="Path_6153" data-name="Path 6153" d="M815.815,114.673a6.495,6.495,0,1,1-6.495,6.495,6.5,6.5,0,0,1,6.495-6.495m0-4.71a11.205,11.205,0,1,0,11.205,11.205,11.205,11.205,0,0,0-11.205-11.205Z" transform="translate(-804.61 -109.963)" fill="#fff"/>
    </g>
    <g id="Group_522" data-name="Group 522" transform="translate(27.121 1.189)">
      <rect id="Rectangle_7493" data-name="Rectangle 7493" width="23.618" height="4.711" transform="matrix(0.707, -0.707, 0.707, 0.707, 0, 16.701)" fill="#fff"/>
    </g>
  </g>
  <g id="Group_525" data-name="Group 525" transform="translate(0 6.424)">
    <g id="Group_524" data-name="Group 524" transform="translate(12.373 0.204)">
      <path id="Path_6154" data-name="Path 6154" d="M821.721,158.9a1.469,1.469,0,1,1,.43-1.041A1.412,1.412,0,0,1,821.721,158.9Zm-1.931-1.933a1.221,1.221,0,0,0-.368.893,1.235,1.235,0,0,0,.366.9,1.259,1.259,0,0,0,1.787,0,1.276,1.276,0,0,0,0-1.793,1.257,1.257,0,0,0-1.785,0Zm.863.082a1.228,1.228,0,0,1,.44.058.4.4,0,0,1,.25.408.352.352,0,0,1-.157.318.613.613,0,0,1-.233.078.39.39,0,0,1,.277.158.443.443,0,0,1,.087.25v.118c0,.037,0,.077,0,.12a.26.26,0,0,0,.014.084l.01.02h-.266l0-.016c0-.005,0-.011,0-.018l-.006-.052v-.128a.393.393,0,0,0-.152-.368.681.681,0,0,0-.316-.052h-.224v.634h-.284V157.05Zm.307.254a.739.739,0,0,0-.344-.06h-.242v.584h.257a.771.771,0,0,0,.271-.036.29.29,0,0,0,.059-.488Z" transform="translate(-819.219 -156.397)" fill="#fff"/>
    </g>
    <path id="Path_6155" data-name="Path 6155" d="M732.619,161.927H734.1a1.151,1.151,0,0,0,1.2.786c1.08,0,1.563-1.045,1.553-2.588h-.03a1.928,1.928,0,0,1-1.911,1.165,2.291,2.291,0,0,1-2.384-2.345A2.571,2.571,0,0,1,735.3,156.4c1.583,0,3,1.07,3,3.694,0,2.379-1.13,3.813-3,3.813A2.532,2.532,0,0,1,732.619,161.927Zm4.022-3.017a1.322,1.322,0,0,0-2.643-.025,1.322,1.322,0,0,0,2.643.025Z" transform="translate(-732.534 -156.193)" fill="#fff"/>
    <path id="Path_6156" data-name="Path 6156" d="M780.515,158.773v-.03h-3.654v-1.195H782v1.21l-3,5.973h-1.578Z" transform="translate(-770.534 -157.18)" fill="#fff"/>
    <path id="Path_6157" data-name="Path 6157" d="M846.683,162.053c0-1.692.846-2.743,2.185-2.743a1.715,1.715,0,0,1,1.628,1h.03v-2.763h1.453v7.183h-1.433v-.916h-.025a1.759,1.759,0,0,1-1.662,1C847.524,164.815,846.683,163.76,846.683,162.053Zm1.488.01c0,.981.448,1.583,1.18,1.583s1.185-.607,1.185-1.583-.463-1.588-1.185-1.588S848.171,161.087,848.171,162.063Z" transform="translate(-830.389 -157.18)" fill="#fff"/>
    <path id="Path_6158" data-name="Path 6158" d="M890.523,155.715a.757.757,0,1,1,.757.747A.748.748,0,0,1,890.523,155.715Zm.035,1.468h1.453v5.336h-1.453Z" transform="translate(-867.972 -154.968)" fill="#fff"/>
    <path id="Path_6159" data-name="Path 6159" d="M906.521,175.693h1.424a1.057,1.057,0,0,0,1.085.617c.752,0,1.17-.413,1.17-1.03v-.936h-.03a1.741,1.741,0,0,1-1.648.956c-1.3,0-2.165-1.005-2.165-2.673,0-1.692.836-2.733,2.19-2.733a1.75,1.75,0,0,1,1.648,1.015h.025v-.931h1.434v5.261c0,1.27-1.065,2.086-2.663,2.086C907.586,177.326,906.636,176.644,906.521,175.693Zm3.684-3.056c0-.961-.463-1.578-1.19-1.578s-1.17.607-1.17,1.578.448,1.543,1.17,1.543S910.2,173.6,910.2,172.637Z" transform="translate(-881.545 -167.763)" fill="#fff"/>
    <path id="Path_6160" data-name="Path 6160" d="M950.022,155.715a.757.757,0,1,1,.757.747A.748.748,0,0,1,950.022,155.715Zm.035,1.468h1.453v5.336h-1.453Z" transform="translate(-918.978 -154.968)" fill="#fff"/>
    <path id="Path_6161" data-name="Path 6161" d="M966.875,161.872v1.23h.986v1.1h-.986v2.554c0,.408.2.6.627.6a2.365,2.365,0,0,0,.353-.025v1.07a3.345,3.345,0,0,1-.692.06c-1.254,0-1.742-.418-1.742-1.458v-2.8h-.752v-1.1h.752v-1.23Z" transform="translate(-931.535 -160.887)" fill="#fff"/>
    <path id="Path_6162" data-name="Path 6162" d="M990.828,173.6c0-.971.747-1.533,2.076-1.613l1.344-.08v-.354c0-.5-.348-.786-.9-.786a.865.865,0,0,0-.956.662h-1.329c.055-1.035.936-1.747,2.35-1.747,1.369,0,2.26.707,2.26,1.782v3.668h-1.4v-.816h-.03a1.836,1.836,0,0,1-1.628.9A1.65,1.65,0,0,1,990.828,173.6Zm3.42-.423v-.388l-1.125.07c-.542.04-.851.284-.851.662,0,.4.329.647.821.647A1.066,1.066,0,0,0,994.248,173.178Z" transform="translate(-953.959 -167.583)" fill="#fff"/>
    <path id="Path_6163" data-name="Path 6163" d="M1031.6,157.548h1.453v7.183H1031.6Z" transform="translate(-988.909 -157.18)" fill="#fff"/>
    <path id="Path_6164" data-name="Path 6164" d="M1064.484,163.815h-.03v.916h-1.434v-7.183h1.453v2.773h.03a1.735,1.735,0,0,1,1.648-1.01c1.344,0,2.17,1.03,2.17,2.752s-.821,2.753-2.165,2.753A1.759,1.759,0,0,1,1064.484,163.815Zm-.015-1.752c0,.966.478,1.583,1.185,1.583.727,0,1.18-.607,1.18-1.583s-.458-1.588-1.18-1.588C1064.952,160.475,1064.469,161.107,1064.469,162.063Z" transform="translate(-1015.847 -157.18)" fill="#fff"/>
    <path id="Path_6165" data-name="Path 6165" d="M1110.209,162.728h-1.4v-.961h-.03a1.586,1.586,0,0,1-1.6,1.06,1.827,1.827,0,0,1-1.921-2v-3.439h1.453v3.136c0,.712.353,1.09,1,1.09a1.042,1.042,0,0,0,1.05-1.17v-3.056h1.453Zm-4.236-6.8a.722.722,0,1,1,.717.707A.713.713,0,0,1,1105.973,155.924Zm2.086,0a.719.719,0,1,1,.722.707A.714.714,0,0,1,1108.058,155.924Z" transform="translate(-1052.053 -155.177)" fill="#fff"/>
    <path id="Path_6166" data-name="Path 6166" d="M1146.584,169.979h1.4v.961h.03a1.273,1.273,0,0,1,1.269-1.045,1.484,1.484,0,0,1,.413.055v1.279a1.5,1.5,0,0,0-.528-.085,1.063,1.063,0,0,0-1.135,1.19v2.982h-1.454Z" transform="translate(-1087.482 -167.763)" fill="#fff"/>
    <path id="Path_6167" data-name="Path 6167" d="M1169.987,172.461a2.647,2.647,0,1,1,2.643,2.788A2.526,2.526,0,0,1,1169.987,172.461Zm3.808.005c0-1.06-.458-1.672-1.165-1.672s-1.17.612-1.17,1.672.453,1.673,1.17,1.673S1173.795,173.537,1173.795,172.466Z" transform="translate(-1107.545 -167.583)" fill="#fff"/>
  </g>
</svg>
