<svg id="Group_527" data-name="Group 527" xmlns="http://www.w3.org/2000/svg" width="104.944" height="20.025" viewBox="0 0 104.944 20.025">
  <rect id="Rectangle_3" data-name="Rectangle 3" width="44.218" height="13.593" transform="translate(0 6.432)" fill="none"/>
  <g id="Group_2" data-name="Group 2" transform="translate(4.412 8.734)">
    <path id="Path_4" data-name="Path 4" d="M83.827,288.307v-.421h2l2.046,5.16h.136l2.046-5.16H92v.421l-2.91,6.967h-2.3Z" transform="translate(-83.827 -287.057)" fill="#fff"/>
    <path id="Path_5" data-name="Path 5" d="M149.436,281.952a.966.966,0,1,1-.977.966A.9.9,0,0,1,149.436,281.952Zm-.955,2.534h1.91v5.683h-1.91Z" transform="translate(-139.423 -281.952)" fill="#fff"/>
    <path id="Path_6" data-name="Path 6" d="M176.168,301.355h-1.978a1,1,0,0,0-.977-.648c-.455,0-.784.137-.784.432,0,.886,3.807-.012,3.807,2.114,0,1.046-1.091,1.807-2.864,1.807a3.14,3.14,0,0,1-3.126-1.864v-.352h1.978a1.132,1.132,0,0,0,1.091.682c.557,0,.864-.2.864-.443,0-.693-3.762.057-3.762-2.1,0-1.023,1.137-1.875,2.773-1.875a2.916,2.916,0,0,1,2.978,1.9Z" transform="translate(-158.165 -296.707)" fill="#fff"/>
    <path id="Path_7" data-name="Path 7" d="M222.28,281.952a.966.966,0,1,1-.977.966A.9.9,0,0,1,222.28,281.952Zm-.955,2.534h1.909v5.683h-1.909Z" transform="translate(-202.083 -281.952)" fill="#fff"/>
    <path id="Path_8" data-name="Path 8" d="M245.517,289.6h1.159v1.773h-1.159v1.364c0,.534.25.841.75.841.057,0,.3-.023.352-.034v1.773a4.9,4.9,0,0,1-.932.091c-1.546,0-2.08-1.171-2.08-2.648v-1.387h-.682V289.6h.682v-1.148l1.909-.568Z" transform="translate(-220.683 -287.057)" fill="#fff"/>
  </g>
  <rect id="Rectangle_4" data-name="Rectangle 4" width="61.5" height="13.593" transform="translate(35.145 6.432)" fill="#fff302"/>
  <g id="Group_3" data-name="Group 3" transform="translate(38.864 9.563)">
    <path id="Path_9" data-name="Path 9" d="M330.246,291.8v-3.91h1.932v4.069a1.637,1.637,0,1,0,3.273,0v-4.069h1.932v3.91c0,2.421-1.307,3.614-3.569,3.614S330.246,294.217,330.246,291.8Z" transform="translate(-330.246 -287.887)" fill="#1a1818"/>
    <path id="Path_10" data-name="Path 10" d="M398.383,290.9v.2l2.978,3.751v.42h-2.148l-2.262-2.944-.955.943v2h-1.932v-7.388H396v3.046l2.989-3.046h2v.421Z" transform="translate(-385.142 -287.887)" fill="#1a1818"/>
    <path id="Path_11" data-name="Path 11" d="M454.389,287.887h4.205a2.371,2.371,0,0,1,2.648,2.307,2.2,2.2,0,0,1-1.511,2.137v.068l1.807,2.455v.42h-2.125l-1.773-2.557h-1.318v2.557h-1.932Zm1.932,1.8v1.239h2.273c.432,0,.716-.228.716-.625s-.284-.614-.716-.614Z" transform="translate(-437.033 -287.887)" fill="#1a1818"/>
    <path id="Path_12" data-name="Path 12" d="M512.8,287.887h2.3l3.023,6.967v.42h-2l-.489-1.2h-3.364l-.489,1.2h-1.943v-.42Zm.147,4.5h2l-.921-2.273h-.171Z" transform="translate(-484.729 -287.887)" fill="#1a1818"/>
    <path id="Path_13" data-name="Path 13" d="M577.071,287.887H579v7.388h-1.932Z" transform="translate(-542.563 -287.887)" fill="#1a1818"/>
    <path id="Path_14" data-name="Path 14" d="M607.013,290.285h-.126v4.989h-1.932v-7.388h2.739l3.08,4.989h.125v-4.989h1.932v7.388H610.1Z" transform="translate(-566.549 -287.887)" fill="#1a1818"/>
    <path id="Path_15" data-name="Path 15" d="M675.116,287.887h6.08v1.682h-4.148v1.023h3.944v1.682h-3.944v1.318h4.171v1.682h-6.1Z" transform="translate(-626.901 -287.887)" fill="#1a1818"/>
  </g>
  <g id="now" transform="translate(91.351)">
    <path id="Path_16" data-name="Path 16" d="M719.267,226.279a6.8,6.8,0,1,0-6.8,6.8,6.8,6.8,0,0,0,6.8-6.8" transform="translate(-705.674 -219.483)" fill="#006eff"/>
    <path id="Path_17" data-name="Path 17" d="M719.874,259.979h-.042v1.706h-.661v-2.526h.937l1.053,1.706h.043v-1.706h.66v2.526h-.932Z" transform="translate(-717.284 -253.612)" fill="#fff"/>
    <path id="Path_18" data-name="Path 18" d="M743.618,259.407a1.189,1.189,0,0,0-.292-.416,1.3,1.3,0,0,0-.443-.264,1.707,1.707,0,0,0-1.113,0,1.31,1.31,0,0,0-.441.264,1.2,1.2,0,0,0-.291.416,1.479,1.479,0,0,0,0,1.1,1.215,1.215,0,0,0,.291.418,1.3,1.3,0,0,0,.441.266,1.708,1.708,0,0,0,1.113,0,1.3,1.3,0,0,0,.443-.266,1.207,1.207,0,0,0,.292-.418,1.477,1.477,0,0,0,0-1.1m-.763,1.072a.837.837,0,0,1-1.053,0,.794.794,0,0,1,0-1.045.838.838,0,0,1,1.053,0,.795.795,0,0,1,0,1.045" transform="translate(-736.004 -253.16)" fill="#fff"/>
    <path id="Path_19" data-name="Path 19" d="M761.444,259.3v-.144h.668l.42,1.558h.043l.478-1.558h.712l.478,1.558h.043l.42-1.558h.649v.144l-.688,2.382H763.9l-.478-1.488h-.058l-.462,1.488h-.751Z" transform="translate(-753.647 -253.612)" fill="#fff"/>
  </g>
</svg>
