<svg id="mc_symbol" xmlns="http://www.w3.org/2000/svg" width="44.172" height="29.215" viewBox="0 0 44.172 29.215">
  <g id="Group_257" data-name="Group 257" opacity="0">
    <rect id="Rectangle_196" data-name="Rectangle 196" width="44.173" height="29.215" fill="#fff"/>
  </g>
  <rect id="Rectangle_197" data-name="Rectangle 197" width="11.652" height="19.032" transform="translate(16.262 5.09)" fill="#ff5f00"/>
  <path id="Path_5353" data-name="Path 5353" d="M22.4,19.556a12.083,12.083,0,0,1,4.623-9.514,12.1,12.1,0,1,0,0,19.032A12.083,12.083,0,0,1,22.4,19.556Z" transform="translate(-4.942 -4.948)" fill="#eb001b"/>
  <path id="Path_5354" data-name="Path 5354" d="M120.042,64.831v-.39h.168V64.36h-.4v.081h.158v.39Zm.777,0V64.36H120.7l-.141.336-.141-.336h-.121v.471h.087v-.356l.131.306h.091l.131-.306v.356Z" transform="translate(-79.531 -42.722)" fill="#f79e1b"/>
  <path id="Path_5355" data-name="Path 5355" d="M85.273,19.547A12.1,12.1,0,0,1,65.69,29.061a12.1,12.1,0,0,0,0-19.032,12.1,12.1,0,0,1,19.583,9.514Z" transform="translate(-43.605 -4.939)" fill="#f79e1b"/>
</svg>
