<svg id="Group_527" data-name="Group 527" xmlns="http://www.w3.org/2000/svg" width="145.537" height="27.771" viewBox="0 0 145.537 27.771">
  <rect id="Rectangle_3" data-name="Rectangle 3" width="61.322" height="18.851" transform="translate(0 8.92)" fill="none"/>
  <g id="Group_2" data-name="Group 2" transform="translate(6.119 12.112)">
    <path id="Path_4" data-name="Path 4" d="M83.827,288.47v-.583H86.6l2.837,7.156h.189l2.837-7.156h2.7v.583l-4.035,9.662H87.941Z" transform="translate(-83.827 -286.736)" fill="#fff"/>
    <path id="Path_5" data-name="Path 5" d="M149.814,281.952a1.34,1.34,0,1,1-1.355,1.34A1.25,1.25,0,0,1,149.814,281.952Zm-1.324,3.515h2.648v7.881H148.49Z" transform="translate(-135.928 -281.952)" fill="#fff"/>
    <path id="Path_6" data-name="Path 6" d="M178.459,302.226h-2.743a1.389,1.389,0,0,0-1.355-.9c-.631,0-1.088.189-1.088.6,0,1.229,5.28-.016,5.28,2.931,0,1.45-1.513,2.506-3.972,2.506-2,0-3.814-.977-4.334-2.585v-.489h2.742a1.57,1.57,0,0,0,1.513.946c.773,0,1.2-.284,1.2-.615,0-.961-5.217.079-5.217-2.916,0-1.418,1.576-2.6,3.846-2.6a4.043,4.043,0,0,1,4.13,2.632Z" transform="translate(-153.491 -295.779)" fill="#fff"/>
    <path id="Path_7" data-name="Path 7" d="M222.658,281.952a1.34,1.34,0,1,1-1.355,1.34A1.25,1.25,0,0,1,222.658,281.952Zm-1.324,3.515h2.648v7.881h-2.648Z" transform="translate(-194.648 -281.952)" fill="#fff"/>
    <path id="Path_8" data-name="Path 8" d="M246.52,290.267h1.607v2.459H246.52v1.891c0,.741.346,1.166,1.04,1.166.079,0,.409-.032.489-.047V298.2a6.793,6.793,0,0,1-1.293.126c-2.144,0-2.884-1.623-2.884-3.672v-1.923h-.946v-2.459h.946v-1.592l2.648-.788Z" transform="translate(-212.079 -286.736)" fill="#fff"/>
  </g>
  <rect id="Rectangle_4" data-name="Rectangle 4" width="85.289" height="18.851" transform="translate(48.739 8.92)" fill="#fff302"/>
  <g id="Group_3" data-name="Group 3" transform="translate(53.896 13.263)">
    <path id="Path_9" data-name="Path 9" d="M330.246,293.309v-5.422h2.68v5.642a2.27,2.27,0,1,0,4.539,0v-5.642h2.679v5.422c0,3.357-1.812,5.012-4.949,5.012S330.246,296.666,330.246,293.309Z" transform="translate(-330.246 -287.887)" fill="#1a1818"/>
    <path id="Path_10" data-name="Path 10" d="M400.054,292.064v.284l4.13,5.2v.583H401.2l-3.136-4.082-1.324,1.308v2.774h-2.68V287.887h2.68v4.224l4.145-4.224h2.774v.583Z" transform="translate(-381.691 -287.887)" fill="#1a1818"/>
    <path id="Path_11" data-name="Path 11" d="M454.389,287.887h5.832c2.112,0,3.673,1.23,3.673,3.2a3.054,3.054,0,0,1-2.1,2.963v.095l2.506,3.4v.583h-2.947l-2.459-3.547h-1.829v3.547h-2.68Zm2.68,2.49V292.1h3.152c.6,0,.993-.316.993-.867,0-.536-.394-.851-.993-.851Z" transform="translate(-430.319 -287.887)" fill="#1a1818"/>
    <path id="Path_12" data-name="Path 12" d="M513.951,287.887h3.184l4.193,9.662v.583h-2.774l-.678-1.671H513.21l-.678,1.671h-2.7v-.583Zm.2,6.242h2.774l-1.277-3.152h-.237Z" transform="translate(-475.017 -287.887)" fill="#1a1818"/>
    <path id="Path_13" data-name="Path 13" d="M577.071,287.887h2.68v10.245h-2.68Z" transform="translate(-529.215 -287.887)" fill="#1a1818"/>
    <path id="Path_14" data-name="Path 14" d="M607.808,291.213h-.174v6.919h-2.679V287.887h3.8l4.271,6.919h.174v-6.919h2.68v10.245h-3.783Z" transform="translate(-551.693 -287.887)" fill="#1a1818"/>
    <path id="Path_15" data-name="Path 15" d="M675.116,287.887h8.432v2.333H677.8v1.418h5.469v2.333H677.8V295.8h5.784v2.333h-8.464Z" transform="translate(-608.25 -287.887)" fill="#1a1818"/>
  </g>
  <g id="now" transform="translate(126.686)">
    <path id="Path_16" data-name="Path 16" d="M724.525,228.908a9.425,9.425,0,1,0-9.425,9.426,9.425,9.425,0,0,0,9.425-9.426" transform="translate(-705.674 -219.483)" fill="#006eff"/>
    <path id="Path_17" data-name="Path 17" d="M720.147,260.3h-.059v2.366h-.917v-3.5h1.3l1.46,2.366h.059v-2.366h.915v3.5h-1.293Z" transform="translate(-716.554 -251.466)" fill="#fff"/>
    <path id="Path_18" data-name="Path 18" d="M744.657,259.706a1.647,1.647,0,0,0-.4-.577,1.8,1.8,0,0,0-.614-.366,2.368,2.368,0,0,0-1.543,0,1.815,1.815,0,0,0-.612.366,1.658,1.658,0,0,0-.4.577,2.051,2.051,0,0,0,0,1.519,1.683,1.683,0,0,0,.4.579,1.809,1.809,0,0,0,.612.369,2.367,2.367,0,0,0,1.543,0,1.8,1.8,0,0,0,.614-.369,1.672,1.672,0,0,0,.4-.579,2.048,2.048,0,0,0,0-1.519m-1.059,1.487a1.16,1.16,0,0,1-1.46,0,1.1,1.1,0,0,1,0-1.45,1.161,1.161,0,0,1,1.46,0,1.1,1.1,0,0,1,0,1.45" transform="translate(-734.097 -251.043)" fill="#fff"/>
    <path id="Path_19" data-name="Path 19" d="M761.444,259.358v-.2h.927l.582,2.161h.059l.662-2.161h.987l.662,2.161h.059l.583-2.161h.9v.2l-.954,3.3H764.85l-.663-2.064h-.081l-.641,2.064h-1.041Z" transform="translate(-750.631 -251.466)" fill="#fff"/>
  </g>
</svg>
