<svg id="EUROINS" xmlns="http://www.w3.org/2000/svg" width="121.503" height="32.537" viewBox="0 0 121.503 32.537">
  <path id="Path_5201" data-name="Path 5201" d="M95.142,19.849A5.064,5.064,0,0,0,96.267,23.5a3.681,3.681,0,0,0,2.881,1.265,3.538,3.538,0,0,0,2.811-1.265,5.369,5.369,0,0,0,1.124-3.724,5.4,5.4,0,0,0-1.054-3.654,3.531,3.531,0,0,0-2.881-1.195,3.758,3.758,0,0,0-2.881,1.195A5.489,5.489,0,0,0,95.142,19.849Zm-3.022.141a9.212,9.212,0,0,1,.632-3.654,7.486,7.486,0,0,1,1.335-1.968A6.115,6.115,0,0,1,95.915,13.1a8.367,8.367,0,0,1,3.092-.562,6.618,6.618,0,0,1,5.06,1.968,7.646,7.646,0,0,1,1.9,5.481,7.357,7.357,0,0,1-1.9,5.411,7.489,7.489,0,0,1-10.119,0A7.873,7.873,0,0,1,92.121,19.989Zm-8.714-4.849v4.076h1.546a7.557,7.557,0,0,0,2.249-.211,1.8,1.8,0,0,0,.914-.7,2.124,2.124,0,0,0,.351-1.124,1.822,1.822,0,0,0-1.546-1.9,14.273,14.273,0,0,0-2.038-.07H83.407ZM80.455,27.017V12.751h4.638a17.414,17.414,0,0,1,3.443.211,3.724,3.724,0,0,1,2.038,1.405,4.325,4.325,0,0,1,.843,2.811,4.437,4.437,0,0,1-.492,2.249,3.967,3.967,0,0,1-1.195,1.405,4.706,4.706,0,0,1-1.476.7,16.246,16.246,0,0,1-3.022.211h-1.9v5.411H80.455ZM70.2,20.762v3.865h2.67a12.1,12.1,0,0,0,1.968-.07A1.933,1.933,0,0,0,75.887,24a1.653,1.653,0,0,0,.422-1.195,2.062,2.062,0,0,0-.281-1.124,1.785,1.785,0,0,0-.914-.632,9.656,9.656,0,0,0-2.53-.211H70.2Zm0-5.622v3.3h1.9a13.759,13.759,0,0,0,2.108-.07,2.065,2.065,0,0,0,1.195-.492,1.484,1.484,0,0,0,.422-1.124,1.726,1.726,0,0,0-.351-1.054,1.656,1.656,0,0,0-1.054-.492c-.281,0-1.124-.07-2.46-.07Zm-2.951-2.389h5.692a20.559,20.559,0,0,1,2.53.141,3.409,3.409,0,0,1,1.476.562,4.611,4.611,0,0,1,1.124,1.195,3.339,3.339,0,0,1,.422,1.687,3.483,3.483,0,0,1-.562,1.827,3.251,3.251,0,0,1-1.476,1.265,4.155,4.155,0,0,1,2.038,1.335,3.377,3.377,0,0,1,.7,2.178,4.638,4.638,0,0,1-.422,1.9A3.251,3.251,0,0,1,77.5,26.314a5,5,0,0,1-1.968.7c-.492.07-1.616.07-3.514.07H67.173V12.751Zm67.322,8.995,2.811.843A6.187,6.187,0,0,1,135.2,26.1a5.945,5.945,0,0,1-3.795,1.124A6.158,6.158,0,0,1,126.7,25.26a7.567,7.567,0,0,1-1.827-5.341,8,8,0,0,1,1.827-5.552,6.155,6.155,0,0,1,4.849-1.968,5.957,5.957,0,0,1,4.287,1.546,6.043,6.043,0,0,1,1.476,2.67l-2.881.7a2.679,2.679,0,0,0-1.054-1.757,3.141,3.141,0,0,0-1.968-.632,3.31,3.31,0,0,0-2.6,1.124,5.767,5.767,0,0,0-.984,3.724,6.085,6.085,0,0,0,.984,3.865,3.075,3.075,0,0,0,2.53,1.124,2.824,2.824,0,0,0,1.968-.7A3.735,3.735,0,0,0,134.566,21.746ZM112.43,27.017V12.751h2.881v5.622h5.622V12.751h2.881V27.017h-2.881V20.762h-5.622v6.254Zm-5.06-14.265h2.881V27.017H107.37Zm-46.38,5.973v2.389h-4.5a4.738,4.738,0,0,0,1.124,2.811,2.922,2.922,0,0,0,2.178.914,3.3,3.3,0,0,0,2.178-.773,3.571,3.571,0,0,0,1.054-2.249l2.881.914A5.967,5.967,0,0,1,63.871,26.1a6.8,6.8,0,0,1-7.8.07,6.642,6.642,0,0,1-2.038-2.67A9.1,9.1,0,0,1,53.4,20.06a7.842,7.842,0,0,1,1.757-5.411,5.982,5.982,0,0,1,4.849-2.038,6.02,6.02,0,0,1,3.865,1.124,5.512,5.512,0,0,1,1.968,3.092l-2.881.632a3.064,3.064,0,0,0-3.022-2.389,2.854,2.854,0,0,0-2.389,1.054,5.359,5.359,0,0,0-1.054,2.67h4.5Z" transform="translate(-15.874 -3.686)" fill="#7c7c7c"/>
  <path id="Path_5202" data-name="Path 5202" d="M13.422.281V32.326l-.7-.141-.7-.141-.7-.211-.7-.211-.632-.281-.632-.281-.632-.281-.632-.351-.632-.351-.562-.422-.562-.422-.562-.422L5.27,28.32l-.492-.492-.492-.492-.492-.492-.422-.562-.422-.562-.422-.562L2.178,24.6l-.281-.7-.351-.632-.281-.632L.984,22l-.211-.7-.211-.7-.141-.7-.141-.7-.141-.7-.07-.7L0,17.006V15.46l.07-.773.07-.7.141-.7.141-.7.141-.7.211-.7.211-.632.281-.632.281-.632L1.9,8.644l.351-.632L2.6,7.449l.422-.562.422-.562.422-.562.492-.492.492-.492.492-.492.492-.492.562-.422.562-.422.562-.422.632-.351.632-.351.632-.351.632-.281.632-.281.7-.211.7-.211.7-.141ZM30.78,8.925H15.32V0h2.108l.562.07.562.07.562.07.562.141.562.141L20.8.632l.562.141.562.211.492.211.562.211.492.211.492.281.492.281.492.281.422.351.492.351.422.351.422.281.422.351.422.351.351.422.351.422.351.422.351.422.351.422.351.492.281.492.281.492.281.492ZM31.974,20.66H15.32V11.1H31.693l.07.281.07.281.07.351.07.351.07.351.07.351.07.351.07.351.07.351.07.351.07.351v4.006l-.141.211-.07.281-.07.281-.07.281-.07.281v.211ZM8.222,26.774H9.627l.422-1.335.422,1.335h1.405l-1.124.843.422,1.335-1.124-.843-1.124.843.422-1.335Zm.07-22.839H9.627l.422-1.265.422,1.265h1.335l-1.124.773L11.1,5.973,9.979,5.2l-1.124.773.422-1.265ZM3.373,8.644H4.779L5.2,7.168l.422,1.476H7.027L5.9,9.487l.422,1.265L5.2,9.909l-1.124.843L4.5,9.417Zm-1.9,6.887H2.811l.422-1.265.422,1.265H4.989L3.865,16.3l.492,1.265L3.233,16.8l-1.124.773L2.53,16.3Zm1.616,6.535H4.5l.422-1.335.422,1.335H6.746l-1.124.843.422,1.335L4.919,23.4l-1.124.843.422-1.335ZM15.32,32.537V22.769H31.2l-.211.562-.281.492-.281.492-.281.492L29.8,25.3l-.281.492-.351.492-.422.422-.351.422-.422.422-.422.422-.422.422-.422.351-.492.351-.492.351L25.3,29.8l-.492.281-.492.281-.492.281-.492.281-.562.281-.562.211-.562.211-.562.211-.562.141-.562.141-.562.141-.562.07-.632.07-.632.07H15.6Z" fill="#7c7c7c" fill-rule="evenodd"/>
  <path id="Path_5203" data-name="Path 5203" d="M57.905,43.63a2.877,2.877,0,0,1-1.335.211,2.455,2.455,0,0,1-2.67-2.6A2.637,2.637,0,0,1,56.711,38.5a3.762,3.762,0,0,1,1.265.211l-.211.773a2.151,2.151,0,0,0-1.054-.211,1.718,1.718,0,0,0-1.827,1.9,1.753,1.753,0,0,0,1.827,1.9,2.567,2.567,0,0,0,1.054-.211Z" transform="translate(-16.023 -11.445)" fill="#7c7c7c"/>
  <path id="Path_5204" data-name="Path 5204" d="M66.646,39.443H65.1V38.6h3.935v.843H67.56V43.8h-.914Z" transform="translate(-19.352 -11.475)" fill="#7c7c7c"/>
  <path id="Path_5205" data-name="Path 5205" d="M76.4,38.641a7.456,7.456,0,0,1,1.476-.141,2.388,2.388,0,0,1,1.546.422,1.529,1.529,0,0,1,.492,1.124,1.653,1.653,0,0,1-.422,1.195,2.371,2.371,0,0,1-1.616.562h-.492v1.968H76.47v-5.13Zm.984,2.46c.141,0,.281.07.492.07.7,0,1.124-.351,1.124-.984a.929.929,0,0,0-1.054-.914,1.208,1.208,0,0,0-.562.07Z" transform="translate(-22.711 -11.445)" fill="#7c7c7c"/>
  <path id="Path_5206" data-name="Path 5206" d="M87.476,42.325,86.984,43.8H86l1.687-5.2h1.195l1.687,5.2H89.514l-.492-1.476Zm1.476-.7-.422-1.265c-.07-.351-.211-.7-.281-.984a7.212,7.212,0,0,1-.281.984l-.422,1.265Z" transform="translate(-25.565 -11.475)" fill="#7c7c7c"/>
  <path id="Path_5207" data-name="Path 5207" d="M100.992,43.8l-.562-1.054-.492-.984-.492.984L98.954,43.8H97.9l1.546-2.6L97.97,38.6h1.054l.562,1.054a9.41,9.41,0,0,0,.422.843,9.408,9.408,0,0,1,.422-.843l.562-1.054h1.054L100.5,41.13l1.616,2.67Z" transform="translate(-29.102 -11.475)" fill="#7c7c7c"/>
  <path id="Path_5208" data-name="Path 5208" d="M110.154,38.6l.914,2.038a5.508,5.508,0,0,1,.351.984c.07-.211.141-.562.281-.984l.7-1.968h.984l-1.054,2.6a9.188,9.188,0,0,1-.984,2.038,1.6,1.6,0,0,1-1.265.632,1.042,1.042,0,0,1-.492-.07l.07-.773h.351a1.014,1.014,0,0,0,.843-.632c.07-.141,0-.211,0-.281L109.1,38.67h1.054Z" transform="translate(-32.432 -11.475)" fill="#7c7c7c"/>
  <path id="Path_5209" data-name="Path 5209" d="M120.8,38.641a6.67,6.67,0,0,1,1.405-.141,2.19,2.19,0,0,1,1.476.351,1.121,1.121,0,0,1,.562.984,1.178,1.178,0,0,1-.843,1.124,1.289,1.289,0,0,1,1.054,1.265,1.269,1.269,0,0,1-.492,1.054,2.676,2.676,0,0,1-1.9.492c-.492,0-.914-.07-1.195-.07v-5.06Zm.914,2.038h.492c.632,0,1.054-.281,1.054-.773s-.351-.7-.984-.7a1.208,1.208,0,0,0-.562.07Zm0,2.46h.492c.632,0,1.124-.211,1.124-.843s-.492-.843-1.195-.843h-.492v1.687Z" transform="translate(-35.91 -11.445)" fill="#7c7c7c"/>
  <path id="Path_5210" data-name="Path 5210" d="M132.805,42.325l-.422,1.476H131.4l1.687-5.2h1.195l1.687,5.2h-1.054l-.492-1.476Zm1.476-.7-.422-1.265c-.07-.351-.211-.7-.281-.984a7.218,7.218,0,0,1-.281.984l-.422,1.265Z" transform="translate(-39.061 -11.475)" fill="#7c7c7c"/>
  <path id="Path_5211" data-name="Path 5211" d="M144.614,38.6v2.108h2.249V38.6h.914v5.2h-.914V41.552h-2.249V43.8H143.7V38.6Z" transform="translate(-42.717 -11.475)" fill="#7c7c7c"/>
  <path id="Path_5212" data-name="Path 5212" d="M156.814,38.6v2.108h2.249V38.6h.914v5.2h-.914V41.552h-2.249V43.8H155.9V38.6Z" transform="translate(-46.344 -11.475)" fill="#7c7c7c"/>
  <path id="Path_5213" data-name="Path 5213" d="M167.4,43.741a4.842,4.842,0,0,0,.211-.562,4.631,4.631,0,0,1,.773-1.687,1.47,1.47,0,0,1,.422-.281,1.287,1.287,0,0,1-1.124-1.265,1.529,1.529,0,0,1,.492-1.124,2.611,2.611,0,0,1,1.616-.422,7.9,7.9,0,0,1,1.405.141v5.2h-.914V41.632h-.422a.859.859,0,0,0-.632.211,3.921,3.921,0,0,0-.632,1.476c-.07.141-.07.281-.211.422Zm2.881-4.427a3.784,3.784,0,0,0-.562-.07c-.562,0-1.054.211-1.054.843,0,.562.492.843,1.124.843h.492Z" transform="translate(-49.762 -11.415)" fill="#7c7c7c"/>
</svg>
