<svg id="INSK" xmlns="http://www.w3.org/2000/svg" width="120.017" height="28.27" viewBox="0 0 120.017 28.27">
  <path id="Path_6020" data-name="Path 6020" d="M22.8,25.134a.118.118,0,0,0,.107-.185l-1.191-1.788L19.37,19.642a44.655,44.655,0,0,0-8.746-.254q-.29.025-.579.062c-.127.016-.251.029-.378.045-3.342.422-6.931,1.222-7.6,1.374a.043.043,0,0,1-.045-.066c.485-.669,3.535-4.9,6.048-9.228a.312.312,0,0,1,.029-.049c.181-.308.353-.615.526-.923A78.781,78.781,0,0,0,13.519,0H12.144a.055.055,0,0,0-.053.033C11.877.48,9.639,5.2,6.617,10.623a101.651,101.651,0,0,1-6.6,10.241.1.1,0,0,0-.008.1l2.96,5.213s.513-.094,1.359-.23c1.839-.3,5.26-.8,8.405-.972A94.734,94.734,0,0,1,22.8,25.134Z" transform="translate(0)" fill="#7c7c7c"/>
  <path id="Path_6021" data-name="Path 6021" d="M36.175,20.926c-.443-.636-3.367-4.848-6.451-10A102.482,102.482,0,0,1,24.165.148a.171.171,0,0,0-.156-.1L18.059,0s-.205.578-.563,1.505c-.682,1.784-1.913,4.848-3.277,7.539a93.946,93.946,0,0,1-5.194,8.675.093.093,0,0,0,.082.144l2.115-.135,4.311-.271a44.565,44.565,0,0,0,4.595-7.436c.082-.176.16-.353.238-.533.049-.115.1-.234.148-.349,1.269-3.019,2.349-6.423,2.591-7.206a.067.067,0,0,1,.123-.008c.407.906,2.509,5.545,4.952,9.794.008.016.02.033.029.049q.29.5.579.984a83.078,83.078,0,0,0,6.586,9.425l.8-1.087A.142.142,0,0,0,36.175,20.926Z" transform="translate(-3.469)" fill="#7c7c7c"/>
  <path id="Path_6022" data-name="Path 6022" d="M22.565,10.1c-.62,1.247-2.308,4.647-2.944,5.927,2.776,6.907,7,11.369,9.653,14.294.829.34-8.389-.71-12.018-.48A80,80,0,0,0,5.611,30.873c.39.726.431,1.39.838,1.267A124.889,124.889,0,0,1,29.783,32.1l.452.049c.25.09.316-.246.792-1.009.875-1.485,2.464-4.188,2.468-4.192A74.3,74.3,0,0,1,22.565,10.1Z" transform="translate(-2.16 -3.889)" fill="#7c7c7c"/>
  <path id="Path_6023" data-name="Path 6023" d="M65.466,12.26v8.065H64V12.26Z" transform="translate(-24.637 -4.72)" fill="#7c7c7c"/>
  <path id="Path_6024" data-name="Path 6024" d="M71.419,15.836v2.236h2.216V15.836h1.458V21.7H73.635v-2.47H71.419V21.7H69.961V15.836Z" transform="translate(-26.931 -6.096)" fill="#7c7c7c"/>
  <path id="Path_6025" data-name="Path 6025" d="M84.532,15.836v2.236h2.216V15.836h1.458V21.7H86.748v-2.47H84.532V21.7H83.074V15.836Z" transform="translate(-31.979 -6.096)" fill="#7c7c7c"/>
  <path id="Path_6026" data-name="Path 6026" d="M100.861,18.707A2.833,2.833,0,0,1,97.894,21.7,2.757,2.757,0,0,1,95,18.808a2.808,2.808,0,0,1,2.991-2.972A2.72,2.72,0,0,1,100.861,18.707Zm-4.364.056c0,1.088.543,1.907,1.443,1.907.831,0,1.409-.8,1.409-1.929,0-.875-.4-1.884-1.4-1.884C96.912,16.857,96.5,17.832,96.5,18.763Z" transform="translate(-36.569 -6.096)" fill="#7c7c7c"/>
  <path id="Path_6027" data-name="Path 6027" d="M106.917,15.973a15.9,15.9,0,0,1,2.113-.137c.975,0,2.752.126,2.752,1.452a1.326,1.326,0,0,1-1.2,1.269v.023c.859.126,1.463.595,1.463,1.395,0,1.578-2.1,1.727-3.275,1.727-.732,0-1.51-.046-1.858-.08Zm1.428,4.791a6.742,6.742,0,0,0,.72.034c.673,0,1.486-.172,1.486-.846,0-.652-.65-.858-1.568-.858h-.638Zm.012-2.538h.6c.755,0,1.37-.217,1.37-.755,0-.457-.406-.709-1.277-.709a6.325,6.325,0,0,0-.709.046v1.418Z" transform="translate(-41.158 -6.096)" fill="#7c7c7c"/>
  <path id="Path_6028" data-name="Path 6028" d="M122.071,21.578l-.082-.629h-.031a1.839,1.839,0,0,1-1.514.753,1.592,1.592,0,0,1-1.606-1.674c0-1.427,1.146-2.135,3.038-2.124v-.09c0-.371-.133-.978-1.043-.978a2.519,2.519,0,0,0-1.381.416l-.256-.921a3.4,3.4,0,0,1,1.852-.494c1.647,0,2.118,1.146,2.118,2.371v2.034a9.963,9.963,0,0,0,.072,1.348h-1.167Zm-.173-2.753c-.921-.022-1.79.191-1.79,1.056a.716.716,0,0,0,.736.809,1.077,1.077,0,0,0,1.013-.775,1.161,1.161,0,0,0,.041-.315Z" transform="translate(-45.747 -6.096)" fill="#7c7c7c"/>
  <path id="Path_6029" data-name="Path 6029" d="M132.063,15.836v4.91h1.945v-4.91h1.314v5l.569.024-.062,3.046h-1l-.052-1.962h-4.015v-6.1Z" transform="translate(-50.336 -6.096)" fill="#7c7c7c"/>
  <path id="Path_6030" data-name="Path 6030" d="M144.147,13.044a.735.735,0,1,1-.733-.784A.729.729,0,0,1,144.147,13.044Zm-1.394,7.282V14.634h1.322v5.691Z" transform="translate(-54.925 -4.719)" fill="#7c7c7c"/>
  <path id="Path_6031" data-name="Path 6031" d="M150.18,14.6v2.056c0,.9-.038,1.519-.089,2.319h.038c.343-.674.534-1.1.865-1.691L152.56,14.6h1.947v5.723H152.98V18.28c0-.914.038-1.337.1-2.422h-.051a18.219,18.219,0,0,1-.84,1.645c-.5.845-1.069,1.885-1.629,2.822h-1.921V14.6Zm.675-2.342c.025.5.267.857.712.857.471,0,.713-.354.764-.857h1.056a1.629,1.629,0,0,1-1.845,1.565,1.549,1.549,0,0,1-1.756-1.565Z" transform="translate(-57.219 -4.719)" fill="#7c7c7c"/>
  <path id="Path_6032" data-name="Path 6032" d="M163.213,15.836v2.236h2.216V15.836h1.458V21.7h-1.458v-2.47h-2.216V21.7h-1.458V15.836Z" transform="translate(-62.268 -6.096)" fill="#7c7c7c"/>
  <path id="Path_6033" data-name="Path 6033" d="M175.023,15.836v2.107c0,.925-.033,1.557-.078,2.377h.034c.3-.691.467-1.124.757-1.733l1.369-2.751h1.7V21.7h-1.336v-2.1c0-.937.034-1.37.089-2.482h-.044c-.279.7-.456,1.124-.735,1.686-.434.866-.935,1.932-1.425,2.892h-1.681V15.836Z" transform="translate(-66.857 -6.096)" fill="#7c7c7c"/>
  <path id="Path_6034" data-name="Path 6034" d="M188.128,14.6v2.056c0,.9-.033,1.519-.078,2.319h.034c.3-.674.469-1.1.758-1.691l1.373-2.685h1.707v5.723h-1.339V18.28c0-.914.034-1.337.089-2.422h-.044c-.279.685-.458,1.1-.736,1.645-.435.845-.937,1.885-1.429,2.822h-1.674V14.6Zm.592-2.342c.022.5.234.857.625.857.413,0,.625-.354.669-.857h.926a1.5,1.5,0,0,1-1.618,1.565,1.444,1.444,0,0,1-1.539-1.565Z" transform="translate(-71.905 -4.719)" fill="#7c7c7c"/>
  <path id="Path_6035" data-name="Path 6035" d="M68.425,37.862a3.716,3.716,0,0,1-1.486.257A2.717,2.717,0,0,1,64,35.225a2.892,2.892,0,0,1,3.072-3.035,3.39,3.39,0,0,1,1.4.257l-.232.838a2.853,2.853,0,0,0-1.129-.224A1.919,1.919,0,0,0,65.1,35.175a1.892,1.892,0,0,0,2.009,2.073,2.879,2.879,0,0,0,1.146-.216Z" transform="translate(-24.637 -12.391)" fill="#7c7c7c"/>
  <path id="Path_6036" data-name="Path 6036" d="M76.009,34.94v.813H74.764V39.1H73.71V35.753H72.464V34.94Z" transform="translate(-27.895 -13.45)" fill="#7c7c7c"/>
  <path id="Path_6037" data-name="Path 6037" d="M80.192,36.263c0-.547-.017-.987-.033-1.385h.922l.05.639h.017a1.62,1.62,0,0,1,1.428-.738,1.891,1.891,0,0,1,1.752,2.115,1.982,1.982,0,0,1-1.893,2.231,1.371,1.371,0,0,1-1.171-.556h-.017v2.148H80.192Zm1.046,1.028a1.113,1.113,0,0,0,.033.29.95.95,0,0,0,.922.73c.664,0,1.063-.556,1.063-1.377,0-.73-.357-1.335-1.038-1.335a1.083,1.083,0,0,0-.98,1.045Z" transform="translate(-30.857 -13.388)" fill="#7c7c7c"/>
  <path id="Path_6038" data-name="Path 6038" d="M91.5,39.044l-.066-.464h-.025a1.546,1.546,0,0,1-1.229.556,1.23,1.23,0,0,1-1.3-1.236c0-1.053.93-1.576,2.466-1.568v-.066c0-.274-.108-.722-.847-.722a2.19,2.19,0,0,0-1.121.307l-.208-.68a2.97,2.97,0,0,1,1.5-.365,1.555,1.555,0,0,1,1.719,1.75v1.5a6.755,6.755,0,0,0,.058,1H91.5Zm-.141-2.032c-.747-.017-1.453.141-1.453.78a.553.553,0,0,0,.6.6.863.863,0,0,0,.822-.572.784.784,0,0,0,.033-.232Z" transform="translate(-34.214 -13.398)" fill="#7c7c7c"/>
  <path id="Path_6039" data-name="Path 6039" d="M97.768,34.94l.5.788c.133.224.257.423.374.639h.025c.116-.232.241-.448.357-.655l.465-.771h1.146l-1.395,2,1.42,2.156H99.47l-.515-.829q-.2-.336-.374-.672h-.017c-.116.24-.241.448-.374.672l-.482.829H96.547l1.445-2.115L96.6,34.94Z" transform="translate(-37.166 -13.45)" fill="#7c7c7c"/>
  <path id="Path_6040" data-name="Path 6040" d="M108.8,36.929a2.065,2.065,0,0,1-2.134,2.214A2.01,2.01,0,0,1,104.58,37a2.047,2.047,0,0,1,2.15-2.2A1.976,1.976,0,0,1,108.8,36.929Zm-3.138.041c0,.8.39,1.41,1.038,1.41.6,0,1.013-.589,1.013-1.427,0-.647-.291-1.393-1-1.393C105.958,35.561,105.659,36.282,105.659,36.971Z" transform="translate(-40.258 -13.398)" fill="#7c7c7c"/>
  <path id="Path_6041" data-name="Path 6041" d="M113.827,34.959a11.206,11.206,0,0,1,1.511-.1c.7,0,1.968.091,1.968,1.053a.956.956,0,0,1-.855.921v.017c.614.091,1.046.431,1.046,1.012,0,1.144-1.5,1.252-2.341,1.252-.523,0-1.079-.033-1.329-.058Zm1.013,3.475a4.747,4.747,0,0,0,.515.025c.482,0,1.063-.124,1.063-.614,0-.473-.465-.622-1.121-.622h-.456Zm.008-1.841h.432c.54,0,.98-.158.98-.547,0-.332-.29-.514-.913-.514a4.439,4.439,0,0,0-.506.033v1.028Z" transform="translate(-43.818 -13.419)" fill="#7c7c7c"/>
  <path id="Path_6042" data-name="Path 6042" d="M123.16,34.94v1.493c0,.655-.025,1.1-.058,1.684h.025c.224-.489.349-.8.565-1.227l1.022-1.949h1.27V39.1h-1V37.611c0-.663.025-.97.066-1.758h-.033c-.207.5-.34.8-.548,1.194-.324.614-.7,1.368-1.063,2.049h-1.253V34.94Z" transform="translate(-47.024 -13.45)" fill="#7c7c7c"/>
  <path id="Path_6043" data-name="Path 6043" d="M132.191,33.876v1.493c0,.655-.025,1.1-.058,1.684h.025c.225-.489.349-.8.565-1.227l1.022-1.949h1.27v4.155h-1V36.547c0-.664.025-.97.066-1.758h-.033c-.207.5-.34.8-.548,1.194-.324.614-.7,1.368-1.063,2.048h-1.253V33.876Zm.432-1.7c.017.365.175.622.465.622.308,0,.465-.257.5-.622h.689a1.106,1.106,0,0,1-1.2,1.136,1.061,1.061,0,0,1-1.146-1.136Z" transform="translate(-50.5 -12.386)" fill="#7c7c7c"/>
  <path id="Path_6044" data-name="Path 6044" d="M145.206,32.338V34.8h.175l1.76-2.463h1.271l-2.084,2.6a1.837,1.837,0,0,1,1.444,1.427c.216.605.391,1.186.648,1.733H147.29a10.416,10.416,0,0,1-.481-1.3c-.232-.7-.54-1.2-1.362-1.2H145.2V38.1H144.16V32.338Z" transform="translate(-55.494 -12.448)" fill="#7c7c7c"/>
  <path id="Path_6045" data-name="Path 6045" d="M155.4,39.044l-.066-.464h-.025a1.545,1.545,0,0,1-1.229.556,1.23,1.23,0,0,1-1.3-1.236c0-1.053.93-1.576,2.466-1.568v-.066c0-.274-.108-.722-.847-.722a2.19,2.19,0,0,0-1.121.307l-.208-.68a2.971,2.971,0,0,1,1.5-.365,1.555,1.555,0,0,1,1.718,1.75v1.5a6.705,6.705,0,0,0,.058,1H155.4Zm-.133-2.032c-.747-.017-1.453.141-1.453.78a.553.553,0,0,0,.6.6.864.864,0,0,0,.822-.572.794.794,0,0,0,.033-.232Z" transform="translate(-58.81 -13.398)" fill="#7c7c7c"/>
  <path id="Path_6046" data-name="Path 6046" d="M164.942,34.94V39.1h-1.063V35.753h-1.561V39.1h-1.054V34.94Z" transform="translate(-62.079 -13.45)" fill="#7c7c7c"/>
  <path id="Path_6047" data-name="Path 6047" d="M171.15,32.694a.59.59,0,1,1-.589-.572A.558.558,0,0,1,171.15,32.694Zm-1.121,5.316V33.855h1.063v4.155Z" transform="translate(-65.43 -12.365)" fill="#7c7c7c"/>
  <path id="Path_6048" data-name="Path 6048" d="M177.35,34.94v.813h-1.245V39.1H175.05V35.753H173.8V34.94Z" transform="translate(-66.906 -13.45)" fill="#7c7c7c"/>
  <path id="Path_6049" data-name="Path 6049" d="M183.624,39.044l-.066-.464h-.025a1.545,1.545,0,0,1-1.229.556A1.23,1.23,0,0,1,181,37.9c0-1.053.93-1.576,2.466-1.568v-.066c0-.274-.108-.722-.847-.722a2.19,2.19,0,0,0-1.121.307l-.208-.68a2.971,2.971,0,0,1,1.5-.365,1.555,1.555,0,0,1,1.718,1.75v1.5a6.71,6.71,0,0,0,.058,1h-.947Zm-.133-2.032c-.747-.017-1.453.141-1.453.78a.553.553,0,0,0,.6.6.864.864,0,0,0,.822-.572.8.8,0,0,0,.033-.232Z" transform="translate(-69.676 -13.398)" fill="#7c7c7c"/>
  <path id="Path_6050" data-name="Path 6050" d="M192.655,34.936v4.155h-1.063V35.748h-1.129v.9c0,1.086-.116,1.816-.614,2.181a1.381,1.381,0,0,1-1.046.34l-.108-.821a.838.838,0,0,0,.448-.207c.307-.257.34-.738.34-1.534V34.927h3.172Z" transform="translate(-72.638 -13.445)" fill="#7c7c7c"/>
</svg>
