<svg xmlns="http://www.w3.org/2000/svg" xmlns:xlink="http://www.w3.org/1999/xlink" width="65.537" height="56.734" viewBox="0 0 65.537 56.734">
  <defs>
    <clipPath id="clip-path">
      <path id="Path_31145" data-name="Path 31145" d="M0,0H65.537V56.734H0Z" fill="#7c7c7c"/>
    </clipPath>
  </defs>
  <g id="spare" clip-path="url(#clip-path)">
    <path id="Path_31143" data-name="Path 31143" d="M37.319,0,0,37.312,46.576,18.068,65.537,32,42.347,9.87l-25.809,14.7Z" fill="#7c7c7c"/>
    <path id="Path_31144" data-name="Path 31144" d="M18.572,37.882,49.541,24.331l13.5,10.336L52.382,29.872l-33.81,8.009ZM8.49,54.81c0-1.265-1.362-1.428-3.1-1.7-2.147-.354-3.849-.632-3.849-2.58,0-2.05,1.911-2.455,3.9-2.455A28.622,28.622,0,0,1,9,48.358l-.066.861a20.941,20.941,0,0,0-3.47-.279c-1.454,0-3.013.139-3.013,1.62,0,1.214,1.022,1.391,2.921,1.682,2.279.367,4.02.708,4.02,2.569,0,2.113-2.214,2.455-4.02,2.455a32.338,32.338,0,0,1-3.967-.279l.052-.861a24.387,24.387,0,0,0,3.8.291c1.4,0,3.235-.139,3.235-1.606Zm6.9,2.279V48.244h5.892c1.322,0,2.409.81,2.409,2.758s-1.087,2.77-2.409,2.77H16.32v3.316h-.929Zm.929-7.972v3.8h4.963c.825,0,1.506-.556,1.506-1.909,0-1.328-.682-1.886-1.506-1.886H16.32Zm18.463,5.922H28.839l-1.074,2.049H26.743l4.7-8.844h.773L36.9,57.088H35.883l-1.1-2.049Zm-5.538-.773h5.12l-2.553-4.858-2.567,4.859Zm18.071-.506,3.09,3.328H49.213l-3.1-3.328H43.19v3.328h-.929V48.244h5.891c1.336,0,2.409.81,2.409,2.758s-1.073,2.77-2.409,2.77h-.838V53.76ZM43.19,49.117v3.8h4.962c.825,0,1.506-.556,1.506-1.909,0-1.328-.682-1.886-1.506-1.886Zm13.447,7.972V48.244H64.3l-.078.873H57.555v3.125h5.971l-.053.874H57.555v3.125H64.3l-.078.861H56.637v-.014Z" transform="translate(-0.031 -0.531)" fill="#7c7c7c"/>
  </g>
</svg>
